<svg xmlns="http://www.w3.org/2000/svg" xmlns:xlink="http://www.w3.org/1999/xlink" width="150" zoomAndPan="magnify" viewBox="0 0 112.5 112.499997" height="150" preserveAspectRatio="xMidYMid meet" version="1.0"><defs><clipPath id="2bd076f46b"><path d="M 17.835938 17.835938 L 95.488281 17.835938 L 95.488281 95.488281 L 17.835938 95.488281 Z M 17.835938 17.835938 " clip-rule="nonzero"/></clipPath></defs><path fill="#4b5842" d="M 56.503906 34.847656 C 51.378906 34.847656 47.21875 39.003906 47.21875 44.132812 C 47.21875 49.257812 51.378906 53.414062 56.503906 53.414062 C 61.632812 53.414062 65.789062 49.257812 65.789062 44.132812 C 65.789062 39.003906 61.632812 34.847656 56.503906 34.847656 " fill-opacity="1" fill-rule="nonzero"/><g clip-path="url(#2bd076f46b)"><path fill="#4b5842" d="M 56.503906 80.183594 C 56.503906 80.183594 39.082031 56.472656 39.082031 46.851562 C 39.082031 37.226562 46.882812 29.425781 56.503906 29.425781 C 66.128906 29.425781 73.929688 37.226562 73.929688 46.851562 C 73.929688 56.472656 56.503906 80.183594 56.503906 80.183594 Z M 56.503906 17.835938 C 35.148438 17.835938 17.835938 35.148438 17.835938 56.503906 C 17.835938 77.859375 35.148438 95.171875 56.503906 95.171875 C 77.859375 95.171875 95.171875 77.859375 95.171875 56.503906 C 95.171875 35.148438 77.859375 17.835938 56.503906 17.835938 " fill-opacity="1" fill-rule="nonzero"/></g></svg>