<svg xmlns="http://www.w3.org/2000/svg" xmlns:xlink="http://www.w3.org/1999/xlink" width="40" zoomAndPan="magnify" viewBox="0 0 30 30.000001" height="40" preserveAspectRatio="xMidYMid meet" version="1.0"><defs><clipPath id="1d446e4856"><path d="M 0.484375 0 L 29.515625 0 L 29.515625 29.03125 L 0.484375 29.03125 Z M 0.484375 0 " clip-rule="nonzero"/></clipPath></defs><g clip-path="url(#1d446e4856)"><path fill="#ffffff" d="M 0.484375 0 L 29.515625 0 L 29.515625 29.03125 L 0.484375 29.03125 Z M 0.484375 0 " fill-opacity="1" fill-rule="nonzero"/><path fill="#c7d59f" d="M 0.484375 0 L 29.515625 0 L 29.515625 29.03125 L 0.484375 29.03125 Z M 0.484375 0 " fill-opacity="1" fill-rule="nonzero"/></g><path fill="#4b5842" d="M 6.847656 20.734375 L 6.847656 5.390625 L 10.15625 5.390625 C 16.003906 5.390625 18.929688 7.925781 18.929688 12.996094 C 18.929688 15.476562 18.21875 17.382812 16.800781 18.726562 C 15.382812 20.066406 13.304688 20.734375 10.566406 20.734375 Z M 7.519531 20.152344 L 10.5 20.152344 C 15.660156 20.152344 18.238281 17.765625 18.238281 12.996094 C 18.238281 10.636719 17.585938 8.875 16.28125 7.714844 C 14.976562 6.554688 12.972656 5.972656 10.261719 5.972656 L 7.519531 5.972656 Z M 7.519531 20.152344 " fill-opacity="1" fill-rule="nonzero"/><path fill="#4b5842" d="M 19.238281 20.886719 C 17.664062 20.886719 16.425781 20.511719 15.519531 19.761719 C 14.613281 19.011719 14.066406 17.832031 13.878906 16.21875 L 14.527344 16.152344 C 14.785156 17.636719 15.277344 18.6875 16.007812 19.308594 C 16.734375 19.929688 17.824219 20.238281 19.28125 20.238281 C 20.492188 20.238281 21.449219 19.9375 22.15625 19.339844 C 22.859375 18.742188 23.214844 17.941406 23.214844 16.929688 C 23.214844 16.210938 23.074219 15.640625 22.792969 15.222656 C 22.511719 14.804688 22.070312 14.476562 21.464844 14.230469 C 20.859375 13.984375 20.074219 13.769531 19.109375 13.582031 C 18.300781 13.421875 17.574219 13.207031 16.925781 12.933594 C 16.277344 12.660156 15.761719 12.246094 15.378906 11.691406 C 14.996094 11.136719 14.804688 10.367188 14.804688 9.386719 C 14.804688 8.582031 14.996094 7.863281 15.378906 7.226562 C 15.761719 6.59375 16.289062 6.09375 16.957031 5.726562 C 17.628906 5.359375 18.394531 5.175781 19.257812 5.175781 C 20.496094 5.175781 21.507812 5.511719 22.292969 6.179688 C 23.082031 6.851562 23.558594 7.847656 23.734375 9.171875 L 23.128906 9.257812 C 22.941406 8.0625 22.527344 7.191406 21.894531 6.644531 C 21.261719 6.097656 20.382812 5.824219 19.257812 5.824219 C 18.121094 5.824219 17.207031 6.148438 16.515625 6.796875 C 15.820312 7.445312 15.476562 8.308594 15.476562 9.386719 C 15.476562 10.179688 15.628906 10.8125 15.929688 11.28125 C 16.234375 11.746094 16.664062 12.105469 17.226562 12.347656 C 17.789062 12.59375 18.464844 12.796875 19.257812 12.953125 C 20.382812 13.171875 21.28125 13.433594 21.960938 13.746094 C 22.636719 14.054688 23.128906 14.460938 23.429688 14.964844 C 23.730469 15.46875 23.882812 16.125 23.882812 16.929688 C 23.882812 17.738281 23.6875 18.4375 23.300781 19.027344 C 22.910156 19.617188 22.367188 20.074219 21.667969 20.398438 C 20.96875 20.722656 20.160156 20.886719 19.238281 20.886719 Z M 19.238281 20.886719 " fill-opacity="1" fill-rule="nonzero"/><path fill="#4b5842" d="M 9.574219 23.128906 L 9.574219 22.027344 L 9.929688 22.027344 C 10.148438 22.027344 10.3125 22.074219 10.421875 22.167969 C 10.53125 22.257812 10.589844 22.394531 10.589844 22.578125 C 10.589844 22.6875 10.5625 22.78125 10.511719 22.863281 C 10.464844 22.945312 10.394531 23.011719 10.304688 23.058594 C 10.214844 23.105469 10.113281 23.128906 9.996094 23.128906 Z M 9.828125 22.90625 L 9.988281 22.90625 C 10.097656 22.90625 10.183594 22.878906 10.242188 22.824219 C 10.300781 22.769531 10.328125 22.6875 10.328125 22.582031 C 10.328125 22.472656 10.300781 22.390625 10.238281 22.335938 C 10.179688 22.28125 10.085938 22.253906 9.960938 22.253906 L 9.828125 22.253906 Z M 9.828125 22.90625 " fill-opacity="1" fill-rule="nonzero"/><path fill="#4b5842" d="M 11.480469 23.144531 C 11.34375 23.144531 11.238281 23.113281 11.164062 23.058594 C 11.089844 23 11.046875 22.914062 11.039062 22.800781 L 11.277344 22.765625 C 11.28125 22.820312 11.304688 22.863281 11.339844 22.890625 C 11.375 22.917969 11.425781 22.933594 11.488281 22.933594 C 11.542969 22.933594 11.585938 22.921875 11.617188 22.90625 C 11.644531 22.886719 11.660156 22.859375 11.660156 22.824219 C 11.660156 22.789062 11.644531 22.765625 11.613281 22.746094 C 11.582031 22.730469 11.53125 22.710938 11.460938 22.695312 C 11.382812 22.675781 11.320312 22.652344 11.265625 22.628906 C 11.214844 22.601562 11.171875 22.566406 11.144531 22.523438 C 11.121094 22.480469 11.105469 22.425781 11.105469 22.363281 C 11.105469 22.292969 11.125 22.234375 11.160156 22.179688 C 11.195312 22.128906 11.242188 22.085938 11.304688 22.058594 C 11.367188 22.027344 11.441406 22.015625 11.527344 22.015625 C 11.632812 22.015625 11.71875 22.042969 11.789062 22.097656 C 11.855469 22.152344 11.894531 22.226562 11.90625 22.320312 L 11.683594 22.355469 C 11.675781 22.316406 11.65625 22.28125 11.625 22.257812 C 11.597656 22.234375 11.558594 22.222656 11.511719 22.222656 C 11.46875 22.222656 11.433594 22.234375 11.40625 22.257812 C 11.375 22.277344 11.363281 22.304688 11.363281 22.34375 C 11.363281 22.375 11.375 22.402344 11.402344 22.421875 C 11.429688 22.441406 11.476562 22.460938 11.550781 22.476562 C 11.625 22.496094 11.691406 22.519531 11.746094 22.542969 C 11.800781 22.566406 11.84375 22.597656 11.871094 22.636719 C 11.902344 22.675781 11.914062 22.730469 11.914062 22.800781 C 11.914062 22.867188 11.898438 22.929688 11.859375 22.980469 C 11.824219 23.03125 11.773438 23.070312 11.707031 23.101562 C 11.644531 23.128906 11.566406 23.144531 11.480469 23.144531 Z M 11.480469 23.144531 " fill-opacity="1" fill-rule="nonzero"/><path fill="#4b5842" d="M 13.195312 23.128906 L 13.195312 22.027344 L 13.550781 22.027344 C 13.769531 22.027344 13.933594 22.074219 14.042969 22.167969 C 14.152344 22.257812 14.210938 22.394531 14.210938 22.578125 C 14.210938 22.6875 14.183594 22.78125 14.132812 22.863281 C 14.085938 22.945312 14.015625 23.011719 13.925781 23.058594 C 13.839844 23.105469 13.734375 23.128906 13.621094 23.128906 Z M 13.449219 22.90625 L 13.609375 22.90625 C 13.71875 22.90625 13.804688 22.878906 13.863281 22.824219 C 13.921875 22.769531 13.953125 22.6875 13.953125 22.582031 C 13.953125 22.472656 13.921875 22.390625 13.863281 22.335938 C 13.800781 22.28125 13.707031 22.253906 13.582031 22.253906 L 13.449219 22.253906 Z M 13.449219 22.90625 " fill-opacity="1" fill-rule="nonzero"/><path fill="#4b5842" d="M 15.5 22.25 L 14.996094 22.25 L 14.996094 22.464844 L 15.464844 22.464844 L 15.464844 22.683594 L 14.996094 22.683594 L 14.996094 22.910156 L 15.515625 22.910156 L 15.5 23.128906 L 14.746094 23.128906 L 14.746094 22.027344 L 15.5 22.027344 Z M 15.5 22.25 " fill-opacity="1" fill-rule="nonzero"/><path fill="#4b5842" d="M 16.375 23.144531 C 16.242188 23.144531 16.136719 23.113281 16.0625 23.058594 C 15.988281 23 15.945312 22.914062 15.933594 22.800781 L 16.171875 22.765625 C 16.175781 22.820312 16.199219 22.863281 16.234375 22.890625 C 16.269531 22.917969 16.320312 22.933594 16.386719 22.933594 C 16.441406 22.933594 16.480469 22.921875 16.511719 22.90625 C 16.542969 22.886719 16.554688 22.859375 16.554688 22.824219 C 16.554688 22.789062 16.539062 22.765625 16.507812 22.746094 C 16.476562 22.730469 16.425781 22.710938 16.355469 22.695312 C 16.28125 22.675781 16.214844 22.652344 16.160156 22.628906 C 16.109375 22.601562 16.070312 22.566406 16.042969 22.523438 C 16.015625 22.480469 16.003906 22.425781 16.003906 22.363281 C 16.003906 22.292969 16.019531 22.234375 16.054688 22.179688 C 16.089844 22.128906 16.140625 22.085938 16.203125 22.058594 C 16.265625 22.027344 16.339844 22.015625 16.421875 22.015625 C 16.527344 22.015625 16.617188 22.042969 16.683594 22.097656 C 16.75 22.152344 16.792969 22.226562 16.800781 22.320312 L 16.582031 22.355469 C 16.574219 22.316406 16.554688 22.28125 16.523438 22.257812 C 16.492188 22.234375 16.457031 22.222656 16.410156 22.222656 C 16.363281 22.222656 16.328125 22.234375 16.300781 22.257812 C 16.273438 22.277344 16.257812 22.304688 16.257812 22.34375 C 16.257812 22.375 16.273438 22.402344 16.296875 22.421875 C 16.324219 22.441406 16.375 22.460938 16.445312 22.476562 C 16.519531 22.496094 16.585938 22.519531 16.640625 22.542969 C 16.695312 22.566406 16.738281 22.597656 16.765625 22.636719 C 16.796875 22.675781 16.8125 22.730469 16.8125 22.800781 C 16.8125 22.867188 16.792969 22.929688 16.757812 22.980469 C 16.71875 23.03125 16.667969 23.070312 16.605469 23.101562 C 16.539062 23.128906 16.460938 23.144531 16.375 23.144531 Z M 16.375 23.144531 " fill-opacity="1" fill-rule="nonzero"/><path fill="#4b5842" d="M 17.324219 22.027344 L 17.578125 22.027344 L 17.578125 23.128906 L 17.324219 23.128906 Z M 17.324219 22.027344 " fill-opacity="1" fill-rule="nonzero"/><path fill="#4b5842" d="M 18.707031 22.53125 L 19.179688 22.53125 L 19.179688 23.128906 L 18.976562 23.128906 L 18.960938 23.027344 C 18.925781 23.070312 18.878906 23.101562 18.824219 23.117188 C 18.769531 23.136719 18.710938 23.144531 18.648438 23.144531 C 18.539062 23.144531 18.445312 23.125 18.363281 23.082031 C 18.285156 23.039062 18.222656 22.976562 18.179688 22.894531 C 18.132812 22.8125 18.113281 22.714844 18.113281 22.601562 C 18.113281 22.484375 18.136719 22.382812 18.1875 22.296875 C 18.238281 22.207031 18.308594 22.136719 18.402344 22.089844 C 18.492188 22.039062 18.601562 22.015625 18.726562 22.015625 C 18.832031 22.015625 18.917969 22.03125 18.988281 22.070312 C 19.0625 22.105469 19.121094 22.160156 19.171875 22.234375 L 18.976562 22.375 C 18.949219 22.328125 18.914062 22.296875 18.867188 22.273438 C 18.824219 22.253906 18.777344 22.242188 18.726562 22.242188 C 18.652344 22.242188 18.589844 22.257812 18.539062 22.289062 C 18.488281 22.316406 18.449219 22.359375 18.417969 22.410156 C 18.390625 22.464844 18.375 22.527344 18.375 22.597656 C 18.375 22.699219 18.402344 22.777344 18.457031 22.832031 C 18.511719 22.890625 18.585938 22.917969 18.679688 22.917969 C 18.714844 22.917969 18.753906 22.910156 18.789062 22.898438 C 18.828125 22.882812 18.859375 22.863281 18.886719 22.835938 C 18.910156 22.8125 18.929688 22.777344 18.933594 22.738281 L 18.707031 22.738281 Z M 18.707031 22.53125 " fill-opacity="1" fill-rule="nonzero"/><path fill="#4b5842" d="M 20.441406 22.027344 L 20.683594 22.027344 L 20.683594 23.128906 L 20.460938 23.128906 L 19.972656 22.445312 L 19.972656 23.128906 L 19.726562 23.128906 L 19.726562 22.027344 L 19.953125 22.027344 L 20.441406 22.710938 Z M 20.441406 22.027344 " fill-opacity="1" fill-rule="nonzero"/></svg>