<svg xmlns="http://www.w3.org/2000/svg" xmlns:xlink="http://www.w3.org/1999/xlink" width="150" zoomAndPan="magnify" viewBox="0 0 112.5 112.499997" height="150" preserveAspectRatio="xMidYMid meet" version="1.0"><defs><clipPath id="2649add681"><path d="M 14.273438 24.652344 L 97.902344 24.652344 L 97.902344 87.375 L 14.273438 87.375 Z M 14.273438 24.652344 " clip-rule="nonzero"/></clipPath></defs><g clip-path="url(#2649add681)"><path fill="#4b5842" d="M 20.65625 71.46875 C 20.882812 71.78125 21.109375 72.09375 21.367188 72.390625 L 21.464844 72.503906 C 24.414062 76.261719 28.039062 79.179688 32.34375 81.253906 L 32.953125 81.539062 C 37.925781 84.027344 43.128906 85.878906 48.554688 87.097656 L 48.765625 87.199219 L 51.25 87.199219 C 55.230469 87.265625 59.171875 86.875 63.0625 86.027344 C 66.957031 85.175781 70.699219 83.894531 74.296875 82.175781 C 79.90625 79.46875 84.632812 75.664062 88.476562 70.761719 C 88.789062 70.363281 89.085938 69.964844 89.386719 69.554688 C 91.328125 66.851562 92.910156 63.957031 94.132812 60.863281 C 95.359375 57.769531 96.1875 54.570312 96.617188 51.273438 C 96.617188 51.273438 96.617188 51.175781 96.617188 51.117188 C 97.144531 46.816406 97.140625 42.519531 96.601562 38.21875 C 96.066406 33.921875 95.011719 29.753906 93.441406 25.714844 C 93.441406 25.714844 93.441406 25.714844 93.441406 25.644531 C 93.386719 25.511719 93.3125 25.394531 93.214844 25.292969 C 93.152344 25.207031 93.078125 25.132812 92.988281 25.078125 C 92.824219 24.949219 92.640625 24.871094 92.433594 24.835938 L 92.179688 24.835938 C 86.601562 24.601562 81.113281 25.1875 75.714844 26.597656 C 72.699219 27.417969 69.78125 28.5 66.960938 29.84375 C 63.898438 31.34375 61.0625 33.191406 58.453125 35.390625 C 54.183594 38.960938 50.828125 43.25 48.382812 48.253906 C 47.335938 47.03125 46.195312 45.898438 44.964844 44.863281 C 43.71875 43.8125 42.394531 42.867188 40.996094 42.027344 C 40.921875 41.960938 40.84375 41.910156 40.753906 41.871094 C 39.960938 41.375 39.136719 40.933594 38.285156 40.453125 C 36.128906 39.425781 33.894531 38.601562 31.589844 37.96875 C 27.410156 36.847656 23.15625 36.375 18.828125 36.550781 L 18.402344 36.550781 C 18.238281 36.59375 18.085938 36.667969 17.949219 36.765625 C 17.863281 36.824219 17.785156 36.894531 17.722656 36.976562 C 17.65625 37.050781 17.597656 37.132812 17.550781 37.21875 C 17.515625 37.332031 17.519531 37.445312 17.566406 37.558594 C 17.566406 37.558594 17.566406 37.558594 17.566406 37.628906 C 16.347656 40.769531 15.535156 44.015625 15.128906 47.359375 C 14.71875 50.703125 14.730469 54.042969 15.15625 57.386719 C 15.808594 62.539062 17.644531 67.234375 20.65625 71.46875 Z M 19.238281 41.003906 L 31.746094 58.308594 L 17.664062 55.996094 C 17.125 50.890625 17.640625 45.894531 19.210938 41.003906 Z M 18.089844 58.832031 L 34.03125 61.511719 L 43.476562 74.5625 L 23.238281 70.292969 L 22.914062 69.867188 C 20.496094 66.542969 18.886719 62.863281 18.089844 58.832031 Z M 34.117188 79.097656 L 33.519531 78.828125 C 30.828125 77.53125 28.40625 75.84375 26.257812 73.765625 L 45.222656 77.679688 C 45.660156 79.773438 46.210938 81.835938 46.878906 83.863281 C 42.460938 82.699219 38.207031 81.097656 34.117188 79.054688 Z M 60.636719 37.121094 L 63.160156 63.9375 L 69.882812 54.578125 L 70.253906 54.054688 L 74.960938 47.558594 C 74.953125 47.480469 74.953125 47.40625 74.960938 47.332031 L 74.636719 29.730469 C 75.503906 29.445312 76.414062 29.191406 77.359375 28.964844 L 77.640625 43.898438 L 89.5 27.519531 L 91.171875 27.519531 C 91.355469 28.058594 91.539062 28.59375 91.710938 29.121094 L 74.296875 53.160156 L 93.980469 49.871094 C 93.980469 50.210938 93.980469 50.535156 93.867188 50.863281 C 93.78125 51.484375 93.683594 52.109375 93.554688 52.71875 L 71.996094 56.335938 L 63.390625 68.234375 L 58.921875 74.433594 L 86.5625 68.6875 C 85.691406 69.882812 84.746094 71.011719 83.726562 72.078125 L 56.609375 77.75 L 51.601562 84.460938 L 49.972656 84.460938 C 49.789062 83.921875 49.601562 83.382812 49.433594 82.859375 L 54.441406 75.9375 C 54.507812 75.777344 54.609375 75.640625 54.738281 75.523438 L 60.722656 67.257812 L 58.097656 39.347656 C 58.902344 38.539062 59.746094 37.785156 60.636719 37.078125 Z M 47.066406 51.058594 C 45.824219 54.164062 44.972656 57.367188 44.511719 60.675781 C 44.078125 64.082031 43.988281 67.492188 44.242188 70.914062 L 40.15625 65.242188 C 40.164062 65.214844 40.164062 65.1875 40.15625 65.15625 L 41.320312 45.570312 C 41.929688 45.996094 42.527344 46.453125 43.09375 46.988281 C 44.5625 48.207031 45.882812 49.5625 47.066406 51.058594 Z M 30.8125 40.679688 C 32.953125 41.265625 35.023438 42.039062 37.023438 43.003906 C 37.589844 43.289062 38.160156 43.585938 38.695312 43.898438 L 37.648438 61.78125 L 36.101562 59.65625 L 35.777344 59.203125 L 21.464844 39.347656 C 24.636719 39.40625 27.75 39.851562 30.8125 40.679688 Z M 30.8125 40.679688 " fill-opacity="1" fill-rule="nonzero"/></g></svg>