<svg xmlns="http://www.w3.org/2000/svg" xmlns:xlink="http://www.w3.org/1999/xlink" width="150" zoomAndPan="magnify" viewBox="0 0 112.5 112.499997" height="150" preserveAspectRatio="xMidYMid meet" version="1.0"><defs><clipPath id="5e90200d46"><path d="M 16.351562 17.851562 L 95.5 17.851562 L 95.5 98 L 16.351562 98 Z M 16.351562 17.851562 " clip-rule="nonzero"/></clipPath></defs><g clip-path="url(#5e90200d46)"><path fill="#4b5842" d="M 55.996094 17.882812 C 54.699219 17.882812 53.402344 17.949219 52.109375 18.078125 C 50.816406 18.207031 49.535156 18.398438 48.261719 18.652344 C 46.988281 18.90625 45.730469 19.222656 44.484375 19.601562 C 43.242188 19.976562 42.023438 20.414062 40.820312 20.914062 C 39.621094 21.410156 38.449219 21.964844 37.304688 22.578125 C 36.160156 23.191406 35.046875 23.859375 33.964844 24.582031 C 32.886719 25.304688 31.84375 26.078125 30.839844 26.902344 C 29.835938 27.726562 28.875 28.597656 27.957031 29.515625 C 27.039062 30.433594 26.167969 31.394531 25.34375 32.398438 C 24.519531 33.402344 23.746094 34.445312 23.023438 35.523438 C 22.300781 36.605469 21.632812 37.714844 21.023438 38.863281 C 20.410156 40.007812 19.855469 41.179688 19.355469 42.378906 C 18.859375 43.578125 18.421875 44.800781 18.042969 46.042969 C 17.664062 47.285156 17.347656 48.542969 17.09375 49.820312 C 16.839844 51.09375 16.648438 52.375 16.519531 53.667969 C 16.390625 54.960938 16.324219 56.257812 16.324219 57.554688 C 18.503906 110.1875 93.5 110.171875 95.671875 57.554688 C 95.667969 56.257812 95.605469 54.960938 95.476562 53.667969 C 95.347656 52.375 95.15625 51.09375 94.902344 49.816406 C 94.648438 48.542969 94.332031 47.285156 93.953125 46.042969 C 93.574219 44.800781 93.136719 43.578125 92.640625 42.378906 C 92.140625 41.179688 91.585938 40.007812 90.972656 38.863281 C 90.359375 37.714844 89.691406 36.605469 88.972656 35.523438 C 88.25 34.445312 87.476562 33.402344 86.652344 32.398438 C 85.828125 31.394531 84.957031 30.433594 84.039062 29.515625 C 83.121094 28.597656 82.15625 27.726562 81.152344 26.902344 C 80.148438 26.078125 79.109375 25.304688 78.027344 24.582031 C 76.949219 23.859375 75.835938 23.191406 74.691406 22.578125 C 73.546875 21.964844 72.371094 21.410156 71.171875 20.914062 C 69.972656 20.414062 68.75 19.976562 67.507812 19.601562 C 66.265625 19.222656 65.007812 18.90625 63.734375 18.652344 C 62.460938 18.398438 61.175781 18.207031 59.886719 18.078125 C 58.59375 17.949219 57.296875 17.882812 55.996094 17.882812 Z M 33.503906 40.050781 L 78.488281 40.050781 C 78.6875 40.050781 78.867188 40.109375 79.027344 40.222656 C 79.1875 40.335938 79.296875 40.484375 79.363281 40.671875 C 79.425781 40.855469 79.429688 41.042969 79.375 41.234375 C 79.320312 41.421875 79.214844 41.578125 79.0625 41.699219 L 56.773438 59.253906 C 56.542969 59.429688 56.285156 59.519531 55.996094 59.519531 C 55.710938 59.519531 55.449219 59.429688 55.222656 59.253906 L 32.933594 41.699219 C 32.777344 41.578125 32.675781 41.421875 32.617188 41.234375 C 32.5625 41.042969 32.566406 40.855469 32.632812 40.671875 C 32.695312 40.484375 32.808594 40.335938 32.96875 40.222656 C 33.128906 40.109375 33.308594 40.050781 33.503906 40.050781 Z M 83.503906 72.84375 C 83.503906 73.140625 83.449219 73.421875 83.335938 73.691406 C 83.222656 73.964844 83.0625 74.203125 82.855469 74.410156 C 82.648438 74.617188 82.410156 74.777344 82.136719 74.890625 C 81.867188 75.003906 81.582031 75.058594 81.289062 75.058594 L 30.703125 75.058594 C 30.410156 75.058594 30.128906 75.003906 29.859375 74.890625 C 29.585938 74.777344 29.347656 74.617188 29.140625 74.410156 C 28.929688 74.203125 28.769531 73.964844 28.660156 73.691406 C 28.546875 73.421875 28.492188 73.140625 28.492188 72.84375 L 28.492188 43.277344 C 28.492188 42.890625 28.664062 42.617188 29.011719 42.449219 C 29.355469 42.277344 29.683594 42.3125 29.984375 42.550781 L 53.671875 61.207031 C 54 61.472656 54.363281 61.675781 54.765625 61.820312 C 55.164062 61.960938 55.574219 62.03125 55.996094 62.03125 C 56.421875 62.03125 56.832031 61.960938 57.230469 61.820312 C 57.628906 61.675781 57.996094 61.472656 58.324219 61.207031 L 82.011719 42.550781 C 82.3125 42.3125 82.636719 42.277344 82.984375 42.449219 C 83.332031 42.617188 83.503906 42.890625 83.503906 43.277344 Z M 83.503906 72.84375 " fill-opacity="1" fill-rule="nonzero"/></g></svg>