<svg xmlns="http://www.w3.org/2000/svg" xmlns:xlink="http://www.w3.org/1999/xlink" width="50" zoomAndPan="magnify" viewBox="0 0 37.5 37.499999" height="50" preserveAspectRatio="xMidYMid meet" version="1.0"><defs><clipPath id="c01118d7d4"><path d="M 2.878906 2.074219 L 34.128906 2.074219 L 34.128906 33.324219 L 2.878906 33.324219 Z M 2.878906 2.074219 " clip-rule="nonzero"/></clipPath><clipPath id="63042f347b"><path d="M 18.503906 2.074219 C 9.875 2.074219 2.878906 9.070312 2.878906 17.699219 C 2.878906 26.328125 9.875 33.324219 18.503906 33.324219 C 27.132812 33.324219 34.128906 26.328125 34.128906 17.699219 C 34.128906 9.070312 27.132812 2.074219 18.503906 2.074219 Z M 18.503906 2.074219 " clip-rule="nonzero"/></clipPath></defs><g clip-path="url(#c01118d7d4)"><g clip-path="url(#63042f347b)"><path fill="#c7d59f" d="M 2.878906 2.074219 L 34.128906 2.074219 L 34.128906 33.324219 L 2.878906 33.324219 Z M 2.878906 2.074219 " fill-opacity="1" fill-rule="nonzero"/></g></g><path fill="#4b5842" d="M 10.195312 24.8125 L 10.195312 9.171875 L 13.566406 9.171875 C 19.53125 9.171875 22.511719 11.753906 22.511719 16.925781 C 22.511719 19.453125 21.789062 21.398438 20.339844 22.761719 C 18.894531 24.128906 16.773438 24.8125 13.984375 24.8125 Z M 10.878906 24.21875 L 13.917969 24.21875 C 19.175781 24.21875 21.804688 21.785156 21.804688 16.925781 C 21.804688 14.515625 21.140625 12.722656 19.8125 11.539062 C 18.480469 10.355469 16.4375 9.765625 13.675781 9.765625 L 10.878906 9.765625 Z M 10.878906 24.21875 " fill-opacity="1" fill-rule="nonzero"/><path fill="#4b5842" d="M 22.824219 24.964844 C 21.222656 24.964844 19.960938 24.585938 19.035156 23.820312 C 18.109375 23.058594 17.550781 21.851562 17.363281 20.207031 L 18.019531 20.140625 C 18.285156 21.65625 18.789062 22.726562 19.53125 23.359375 C 20.273438 23.992188 21.386719 24.304688 22.871094 24.304688 C 24.101562 24.304688 25.078125 24 25.796875 23.390625 C 26.519531 22.78125 26.878906 21.964844 26.878906 20.933594 C 26.878906 20.199219 26.734375 19.621094 26.449219 19.195312 C 26.164062 18.769531 25.710938 18.429688 25.09375 18.179688 C 24.476562 17.933594 23.675781 17.710938 22.691406 17.519531 C 21.871094 17.359375 21.128906 17.136719 20.464844 16.859375 C 19.804688 16.582031 19.28125 16.160156 18.890625 15.59375 C 18.503906 15.027344 18.308594 14.246094 18.308594 13.246094 C 18.308594 12.421875 18.503906 11.691406 18.890625 11.042969 C 19.28125 10.398438 19.816406 9.886719 20.5 9.511719 C 21.183594 9.136719 21.964844 8.949219 22.847656 8.949219 C 24.109375 8.949219 25.140625 9.292969 25.941406 9.972656 C 26.742188 10.65625 27.230469 11.675781 27.40625 13.027344 L 26.789062 13.113281 C 26.597656 11.894531 26.179688 11.007812 25.535156 10.449219 C 24.886719 9.890625 23.992188 9.609375 22.847656 9.609375 C 21.6875 9.609375 20.753906 9.941406 20.046875 10.601562 C 19.34375 11.261719 18.992188 12.144531 18.992188 13.246094 C 18.992188 14.054688 19.144531 14.695312 19.453125 15.171875 C 19.761719 15.652344 20.203125 16.015625 20.773438 16.265625 C 21.347656 16.511719 22.039062 16.71875 22.847656 16.882812 C 23.992188 17.101562 24.910156 17.371094 25.601562 17.6875 C 26.292969 18 26.789062 18.417969 27.097656 18.929688 C 27.40625 19.445312 27.5625 20.113281 27.5625 20.933594 C 27.5625 21.757812 27.363281 22.46875 26.964844 23.070312 C 26.570312 23.675781 26.015625 24.140625 25.304688 24.472656 C 24.589844 24.800781 23.765625 24.964844 22.824219 24.964844 Z M 22.824219 24.964844 " fill-opacity="1" fill-rule="nonzero"/><path fill="#4b5842" d="M 12.972656 27.253906 L 12.972656 26.132812 L 13.335938 26.132812 C 13.558594 26.132812 13.726562 26.179688 13.835938 26.273438 C 13.949219 26.367188 14.007812 26.503906 14.007812 26.691406 C 14.007812 26.800781 13.980469 26.898438 13.929688 26.984375 C 13.878906 27.066406 13.808594 27.132812 13.71875 27.183594 C 13.628906 27.230469 13.523438 27.253906 13.40625 27.253906 Z M 13.230469 27.023438 L 13.394531 27.023438 C 13.507812 27.023438 13.59375 26.996094 13.65625 26.941406 C 13.714844 26.886719 13.742188 26.804688 13.742188 26.695312 C 13.742188 26.582031 13.714844 26.5 13.652344 26.445312 C 13.589844 26.390625 13.496094 26.359375 13.367188 26.359375 L 13.230469 26.359375 Z M 13.230469 27.023438 " fill-opacity="1" fill-rule="nonzero"/><path fill="#4b5842" d="M 14.917969 27.265625 C 14.777344 27.265625 14.671875 27.238281 14.597656 27.179688 C 14.519531 27.121094 14.476562 27.035156 14.464844 26.917969 L 14.707031 26.882812 C 14.714844 26.9375 14.734375 26.980469 14.773438 27.007812 C 14.808594 27.039062 14.859375 27.054688 14.925781 27.054688 C 14.980469 27.054688 15.023438 27.042969 15.054688 27.023438 C 15.085938 27.003906 15.101562 26.976562 15.101562 26.941406 C 15.101562 26.90625 15.085938 26.882812 15.050781 26.863281 C 15.019531 26.84375 14.96875 26.828125 14.894531 26.808594 C 14.816406 26.792969 14.753906 26.769531 14.699219 26.742188 C 14.644531 26.714844 14.605469 26.679688 14.578125 26.636719 C 14.550781 26.59375 14.535156 26.539062 14.535156 26.472656 C 14.535156 26.402344 14.554688 26.339844 14.589844 26.285156 C 14.625 26.234375 14.675781 26.191406 14.738281 26.160156 C 14.804688 26.132812 14.878906 26.117188 14.964844 26.117188 C 15.070312 26.117188 15.160156 26.144531 15.230469 26.199219 C 15.300781 26.257812 15.339844 26.332031 15.351562 26.429688 L 15.125 26.464844 C 15.117188 26.421875 15.097656 26.390625 15.066406 26.367188 C 15.035156 26.34375 14.996094 26.332031 14.949219 26.332031 C 14.90625 26.332031 14.867188 26.339844 14.839844 26.363281 C 14.8125 26.386719 14.796875 26.414062 14.796875 26.453125 C 14.796875 26.484375 14.808594 26.511719 14.835938 26.535156 C 14.863281 26.554688 14.914062 26.574219 14.988281 26.589844 C 15.066406 26.609375 15.132812 26.628906 15.1875 26.65625 C 15.242188 26.679688 15.285156 26.710938 15.316406 26.75 C 15.347656 26.792969 15.359375 26.847656 15.359375 26.917969 C 15.359375 26.988281 15.34375 27.046875 15.304688 27.101562 C 15.269531 27.152344 15.214844 27.195312 15.148438 27.222656 C 15.082031 27.253906 15.003906 27.265625 14.917969 27.265625 Z M 14.917969 27.265625 " fill-opacity="1" fill-rule="nonzero"/><path fill="#4b5842" d="M 16.664062 27.253906 L 16.664062 26.132812 L 17.027344 26.132812 C 17.25 26.132812 17.417969 26.179688 17.53125 26.273438 C 17.644531 26.367188 17.699219 26.503906 17.699219 26.691406 C 17.699219 26.800781 17.675781 26.898438 17.621094 26.984375 C 17.574219 27.066406 17.503906 27.132812 17.410156 27.183594 C 17.320312 27.230469 17.214844 27.253906 17.097656 27.253906 Z M 16.921875 27.023438 L 17.085938 27.023438 C 17.199219 27.023438 17.289062 26.996094 17.347656 26.941406 C 17.40625 26.886719 17.4375 26.804688 17.4375 26.695312 C 17.4375 26.582031 17.40625 26.5 17.34375 26.445312 C 17.28125 26.390625 17.1875 26.359375 17.0625 26.359375 L 16.921875 26.359375 Z M 16.921875 27.023438 " fill-opacity="1" fill-rule="nonzero"/><path fill="#4b5842" d="M 19.011719 26.355469 L 18.5 26.355469 L 18.5 26.578125 L 18.980469 26.578125 L 18.980469 26.800781 L 18.5 26.800781 L 18.5 27.03125 L 19.03125 27.03125 L 19.011719 27.253906 L 18.246094 27.253906 L 18.246094 26.132812 L 19.011719 26.132812 Z M 19.011719 26.355469 " fill-opacity="1" fill-rule="nonzero"/><path fill="#4b5842" d="M 19.90625 27.265625 C 19.769531 27.265625 19.664062 27.238281 19.585938 27.179688 C 19.511719 27.121094 19.46875 27.035156 19.457031 26.917969 L 19.699219 26.882812 C 19.707031 26.9375 19.726562 26.980469 19.765625 27.007812 C 19.800781 27.039062 19.851562 27.054688 19.917969 27.054688 C 19.972656 27.054688 20.015625 27.042969 20.046875 27.023438 C 20.078125 27.003906 20.089844 26.976562 20.089844 26.941406 C 20.089844 26.90625 20.074219 26.882812 20.042969 26.863281 C 20.011719 26.84375 19.960938 26.828125 19.886719 26.808594 C 19.808594 26.792969 19.742188 26.769531 19.691406 26.742188 C 19.636719 26.714844 19.59375 26.679688 19.566406 26.636719 C 19.539062 26.59375 19.527344 26.539062 19.527344 26.472656 C 19.527344 26.402344 19.546875 26.339844 19.582031 26.285156 C 19.617188 26.234375 19.667969 26.191406 19.730469 26.160156 C 19.792969 26.132812 19.871094 26.117188 19.953125 26.117188 C 20.0625 26.117188 20.152344 26.144531 20.222656 26.199219 C 20.292969 26.257812 20.332031 26.332031 20.34375 26.429688 L 20.117188 26.464844 C 20.109375 26.421875 20.089844 26.390625 20.058594 26.367188 C 20.027344 26.34375 19.988281 26.332031 19.941406 26.332031 C 19.894531 26.332031 19.859375 26.339844 19.832031 26.363281 C 19.800781 26.386719 19.789062 26.414062 19.789062 26.453125 C 19.789062 26.484375 19.800781 26.511719 19.828125 26.535156 C 19.855469 26.554688 19.90625 26.574219 19.980469 26.589844 C 20.054688 26.609375 20.121094 26.628906 20.179688 26.65625 C 20.234375 26.679688 20.277344 26.710938 20.308594 26.75 C 20.335938 26.792969 20.351562 26.847656 20.351562 26.917969 C 20.351562 26.988281 20.332031 27.046875 20.296875 27.101562 C 20.257812 27.152344 20.207031 27.195312 20.140625 27.222656 C 20.074219 27.253906 19.996094 27.265625 19.90625 27.265625 Z M 19.90625 27.265625 " fill-opacity="1" fill-rule="nonzero"/><path fill="#4b5842" d="M 20.875 26.132812 L 21.132812 26.132812 L 21.132812 27.253906 L 20.875 27.253906 Z M 20.875 26.132812 " fill-opacity="1" fill-rule="nonzero"/><path fill="#4b5842" d="M 22.285156 26.644531 L 22.765625 26.644531 L 22.765625 27.253906 L 22.558594 27.253906 L 22.542969 27.148438 C 22.503906 27.191406 22.460938 27.222656 22.402344 27.242188 C 22.347656 27.261719 22.289062 27.269531 22.226562 27.269531 C 22.113281 27.269531 22.015625 27.25 21.933594 27.203125 C 21.851562 27.160156 21.789062 27.097656 21.746094 27.015625 C 21.699219 26.929688 21.679688 26.832031 21.679688 26.714844 C 21.679688 26.597656 21.703125 26.492188 21.753906 26.402344 C 21.804688 26.3125 21.878906 26.242188 21.972656 26.191406 C 22.066406 26.140625 22.175781 26.117188 22.304688 26.117188 C 22.410156 26.117188 22.5 26.136719 22.574219 26.171875 C 22.644531 26.210938 22.707031 26.265625 22.757812 26.339844 L 22.558594 26.484375 C 22.53125 26.4375 22.496094 26.402344 22.449219 26.382812 C 22.402344 26.359375 22.355469 26.351562 22.304688 26.351562 C 22.230469 26.351562 22.164062 26.363281 22.113281 26.394531 C 22.0625 26.425781 22.019531 26.46875 21.992188 26.519531 C 21.960938 26.574219 21.945312 26.636719 21.945312 26.710938 C 21.945312 26.816406 21.976562 26.894531 22.03125 26.953125 C 22.085938 27.007812 22.160156 27.035156 22.253906 27.035156 C 22.292969 27.035156 22.332031 27.03125 22.367188 27.019531 C 22.40625 27.003906 22.4375 26.984375 22.464844 26.957031 C 22.492188 26.929688 22.507812 26.894531 22.515625 26.855469 L 22.285156 26.855469 Z M 22.285156 26.644531 " fill-opacity="1" fill-rule="nonzero"/><path fill="#4b5842" d="M 24.050781 26.132812 L 24.300781 26.132812 L 24.300781 27.253906 L 24.070312 27.253906 L 23.574219 26.558594 L 23.574219 27.253906 L 23.324219 27.253906 L 23.324219 26.132812 L 23.554688 26.132812 L 24.050781 26.828125 Z M 24.050781 26.132812 " fill-opacity="1" fill-rule="nonzero"/><path fill="#4b5842" d="M 10.195312 24.8125 L 10.195312 9.171875 L 13.566406 9.171875 C 19.53125 9.171875 22.511719 11.753906 22.511719 16.925781 C 22.511719 19.453125 21.789062 21.398438 20.339844 22.761719 C 18.894531 24.128906 16.773438 24.8125 13.984375 24.8125 Z M 10.878906 24.21875 L 13.917969 24.21875 C 19.175781 24.21875 21.804688 21.785156 21.804688 16.925781 C 21.804688 14.515625 21.140625 12.722656 19.8125 11.539062 C 18.480469 10.355469 16.4375 9.765625 13.675781 9.765625 L 10.878906 9.765625 Z M 10.878906 24.21875 " fill-opacity="1" fill-rule="nonzero"/><path fill="#4b5842" d="M 22.824219 24.964844 C 21.222656 24.964844 19.960938 24.585938 19.035156 23.820312 C 18.109375 23.058594 17.550781 21.851562 17.363281 20.207031 L 18.019531 20.140625 C 18.285156 21.65625 18.789062 22.726562 19.53125 23.359375 C 20.273438 23.992188 21.386719 24.304688 22.871094 24.304688 C 24.101562 24.304688 25.078125 24 25.796875 23.390625 C 26.519531 22.78125 26.878906 21.964844 26.878906 20.933594 C 26.878906 20.199219 26.734375 19.621094 26.449219 19.195312 C 26.164062 18.769531 25.710938 18.429688 25.09375 18.179688 C 24.476562 17.933594 23.675781 17.710938 22.691406 17.519531 C 21.871094 17.359375 21.128906 17.136719 20.464844 16.859375 C 19.804688 16.582031 19.28125 16.160156 18.890625 15.59375 C 18.503906 15.027344 18.308594 14.246094 18.308594 13.246094 C 18.308594 12.421875 18.503906 11.691406 18.890625 11.042969 C 19.28125 10.398438 19.816406 9.886719 20.5 9.511719 C 21.183594 9.136719 21.964844 8.949219 22.847656 8.949219 C 24.109375 8.949219 25.140625 9.292969 25.941406 9.972656 C 26.742188 10.65625 27.230469 11.675781 27.40625 13.027344 L 26.789062 13.113281 C 26.597656 11.894531 26.179688 11.007812 25.535156 10.449219 C 24.886719 9.890625 23.992188 9.609375 22.847656 9.609375 C 21.6875 9.609375 20.753906 9.941406 20.046875 10.601562 C 19.34375 11.261719 18.992188 12.144531 18.992188 13.246094 C 18.992188 14.054688 19.144531 14.695312 19.453125 15.171875 C 19.761719 15.652344 20.203125 16.015625 20.773438 16.265625 C 21.347656 16.511719 22.039062 16.71875 22.847656 16.882812 C 23.992188 17.101562 24.910156 17.371094 25.601562 17.6875 C 26.292969 18 26.789062 18.417969 27.097656 18.929688 C 27.40625 19.445312 27.5625 20.113281 27.5625 20.933594 C 27.5625 21.757812 27.363281 22.46875 26.964844 23.070312 C 26.570312 23.675781 26.015625 24.140625 25.304688 24.472656 C 24.589844 24.800781 23.765625 24.964844 22.824219 24.964844 Z M 22.824219 24.964844 " fill-opacity="1" fill-rule="nonzero"/><path fill="#4b5842" d="M 12.972656 27.253906 L 12.972656 26.132812 L 13.335938 26.132812 C 13.558594 26.132812 13.726562 26.179688 13.835938 26.273438 C 13.949219 26.367188 14.007812 26.503906 14.007812 26.691406 C 14.007812 26.800781 13.980469 26.898438 13.929688 26.984375 C 13.878906 27.066406 13.808594 27.132812 13.71875 27.183594 C 13.628906 27.230469 13.523438 27.253906 13.40625 27.253906 Z M 13.230469 27.023438 L 13.394531 27.023438 C 13.507812 27.023438 13.59375 26.996094 13.65625 26.941406 C 13.714844 26.886719 13.742188 26.804688 13.742188 26.695312 C 13.742188 26.582031 13.714844 26.5 13.652344 26.445312 C 13.589844 26.390625 13.496094 26.359375 13.367188 26.359375 L 13.230469 26.359375 Z M 13.230469 27.023438 " fill-opacity="1" fill-rule="nonzero"/><path fill="#4b5842" d="M 14.917969 27.265625 C 14.777344 27.265625 14.671875 27.238281 14.597656 27.179688 C 14.519531 27.121094 14.476562 27.035156 14.464844 26.917969 L 14.707031 26.882812 C 14.714844 26.9375 14.734375 26.980469 14.773438 27.007812 C 14.808594 27.039062 14.859375 27.054688 14.925781 27.054688 C 14.980469 27.054688 15.023438 27.042969 15.054688 27.023438 C 15.085938 27.003906 15.101562 26.976562 15.101562 26.941406 C 15.101562 26.90625 15.085938 26.882812 15.050781 26.863281 C 15.019531 26.84375 14.96875 26.828125 14.894531 26.808594 C 14.816406 26.792969 14.753906 26.769531 14.699219 26.742188 C 14.644531 26.714844 14.605469 26.679688 14.578125 26.636719 C 14.550781 26.59375 14.535156 26.539062 14.535156 26.472656 C 14.535156 26.402344 14.554688 26.339844 14.589844 26.285156 C 14.625 26.234375 14.675781 26.191406 14.738281 26.160156 C 14.804688 26.132812 14.878906 26.117188 14.964844 26.117188 C 15.070312 26.117188 15.160156 26.144531 15.230469 26.199219 C 15.300781 26.257812 15.339844 26.332031 15.351562 26.429688 L 15.125 26.464844 C 15.117188 26.421875 15.097656 26.390625 15.066406 26.367188 C 15.035156 26.34375 14.996094 26.332031 14.949219 26.332031 C 14.90625 26.332031 14.867188 26.339844 14.839844 26.363281 C 14.8125 26.386719 14.796875 26.414062 14.796875 26.453125 C 14.796875 26.484375 14.808594 26.511719 14.835938 26.535156 C 14.863281 26.554688 14.914062 26.574219 14.988281 26.589844 C 15.066406 26.609375 15.132812 26.628906 15.1875 26.65625 C 15.242188 26.679688 15.285156 26.710938 15.316406 26.75 C 15.347656 26.792969 15.359375 26.847656 15.359375 26.917969 C 15.359375 26.988281 15.34375 27.046875 15.304688 27.101562 C 15.269531 27.152344 15.214844 27.195312 15.148438 27.222656 C 15.082031 27.253906 15.003906 27.265625 14.917969 27.265625 Z M 14.917969 27.265625 " fill-opacity="1" fill-rule="nonzero"/><path fill="#4b5842" d="M 16.664062 27.253906 L 16.664062 26.132812 L 17.027344 26.132812 C 17.25 26.132812 17.417969 26.179688 17.53125 26.273438 C 17.644531 26.367188 17.699219 26.503906 17.699219 26.691406 C 17.699219 26.800781 17.675781 26.898438 17.621094 26.984375 C 17.574219 27.066406 17.503906 27.132812 17.410156 27.183594 C 17.320312 27.230469 17.214844 27.253906 17.097656 27.253906 Z M 16.921875 27.023438 L 17.085938 27.023438 C 17.199219 27.023438 17.289062 26.996094 17.347656 26.941406 C 17.40625 26.886719 17.4375 26.804688 17.4375 26.695312 C 17.4375 26.582031 17.40625 26.5 17.34375 26.445312 C 17.28125 26.390625 17.1875 26.359375 17.0625 26.359375 L 16.921875 26.359375 Z M 16.921875 27.023438 " fill-opacity="1" fill-rule="nonzero"/><path fill="#4b5842" d="M 19.011719 26.355469 L 18.5 26.355469 L 18.5 26.578125 L 18.980469 26.578125 L 18.980469 26.800781 L 18.5 26.800781 L 18.5 27.03125 L 19.03125 27.03125 L 19.011719 27.253906 L 18.246094 27.253906 L 18.246094 26.132812 L 19.011719 26.132812 Z M 19.011719 26.355469 " fill-opacity="1" fill-rule="nonzero"/><path fill="#4b5842" d="M 19.90625 27.265625 C 19.769531 27.265625 19.664062 27.238281 19.585938 27.179688 C 19.511719 27.121094 19.46875 27.035156 19.457031 26.917969 L 19.699219 26.882812 C 19.707031 26.9375 19.726562 26.980469 19.765625 27.007812 C 19.800781 27.039062 19.851562 27.054688 19.917969 27.054688 C 19.972656 27.054688 20.015625 27.042969 20.046875 27.023438 C 20.078125 27.003906 20.089844 26.976562 20.089844 26.941406 C 20.089844 26.90625 20.074219 26.882812 20.042969 26.863281 C 20.011719 26.84375 19.960938 26.828125 19.886719 26.808594 C 19.808594 26.792969 19.742188 26.769531 19.691406 26.742188 C 19.636719 26.714844 19.59375 26.679688 19.566406 26.636719 C 19.539062 26.59375 19.527344 26.539062 19.527344 26.472656 C 19.527344 26.402344 19.546875 26.339844 19.582031 26.285156 C 19.617188 26.234375 19.667969 26.191406 19.730469 26.160156 C 19.792969 26.132812 19.871094 26.117188 19.953125 26.117188 C 20.0625 26.117188 20.152344 26.144531 20.222656 26.199219 C 20.292969 26.257812 20.332031 26.332031 20.34375 26.429688 L 20.117188 26.464844 C 20.109375 26.421875 20.089844 26.390625 20.058594 26.367188 C 20.027344 26.34375 19.988281 26.332031 19.941406 26.332031 C 19.894531 26.332031 19.859375 26.339844 19.832031 26.363281 C 19.800781 26.386719 19.789062 26.414062 19.789062 26.453125 C 19.789062 26.484375 19.800781 26.511719 19.828125 26.535156 C 19.855469 26.554688 19.90625 26.574219 19.980469 26.589844 C 20.054688 26.609375 20.121094 26.628906 20.179688 26.65625 C 20.234375 26.679688 20.277344 26.710938 20.308594 26.75 C 20.335938 26.792969 20.351562 26.847656 20.351562 26.917969 C 20.351562 26.988281 20.332031 27.046875 20.296875 27.101562 C 20.257812 27.152344 20.207031 27.195312 20.140625 27.222656 C 20.074219 27.253906 19.996094 27.265625 19.90625 27.265625 Z M 19.90625 27.265625 " fill-opacity="1" fill-rule="nonzero"/><path fill="#4b5842" d="M 20.875 26.132812 L 21.132812 26.132812 L 21.132812 27.253906 L 20.875 27.253906 Z M 20.875 26.132812 " fill-opacity="1" fill-rule="nonzero"/><path fill="#4b5842" d="M 22.285156 26.644531 L 22.765625 26.644531 L 22.765625 27.253906 L 22.558594 27.253906 L 22.542969 27.148438 C 22.503906 27.191406 22.460938 27.222656 22.402344 27.242188 C 22.347656 27.261719 22.289062 27.269531 22.226562 27.269531 C 22.113281 27.269531 22.015625 27.25 21.933594 27.203125 C 21.851562 27.160156 21.789062 27.097656 21.746094 27.015625 C 21.699219 26.929688 21.679688 26.832031 21.679688 26.714844 C 21.679688 26.597656 21.703125 26.492188 21.753906 26.402344 C 21.804688 26.3125 21.878906 26.242188 21.972656 26.191406 C 22.066406 26.140625 22.175781 26.117188 22.304688 26.117188 C 22.410156 26.117188 22.5 26.136719 22.574219 26.171875 C 22.644531 26.210938 22.707031 26.265625 22.757812 26.339844 L 22.558594 26.484375 C 22.53125 26.4375 22.496094 26.402344 22.449219 26.382812 C 22.402344 26.359375 22.355469 26.351562 22.304688 26.351562 C 22.230469 26.351562 22.164062 26.363281 22.113281 26.394531 C 22.0625 26.425781 22.019531 26.46875 21.992188 26.519531 C 21.960938 26.574219 21.945312 26.636719 21.945312 26.710938 C 21.945312 26.816406 21.976562 26.894531 22.03125 26.953125 C 22.085938 27.007812 22.160156 27.035156 22.253906 27.035156 C 22.292969 27.035156 22.332031 27.03125 22.367188 27.019531 C 22.40625 27.003906 22.4375 26.984375 22.464844 26.957031 C 22.492188 26.929688 22.507812 26.894531 22.515625 26.855469 L 22.285156 26.855469 Z M 22.285156 26.644531 " fill-opacity="1" fill-rule="nonzero"/><path fill="#4b5842" d="M 24.050781 26.132812 L 24.300781 26.132812 L 24.300781 27.253906 L 24.070312 27.253906 L 23.574219 26.558594 L 23.574219 27.253906 L 23.324219 27.253906 L 23.324219 26.132812 L 23.554688 26.132812 L 24.050781 26.828125 Z M 24.050781 26.132812 " fill-opacity="1" fill-rule="nonzero"/><path fill="#4b5842" d="M 10.195312 24.875 L 10.195312 9.234375 L 13.566406 9.234375 C 19.53125 9.234375 22.511719 11.820312 22.511719 16.988281 C 22.511719 19.515625 21.789062 21.460938 20.339844 22.828125 C 18.894531 24.195312 16.773438 24.875 13.984375 24.875 Z M 10.878906 24.28125 L 13.917969 24.28125 C 19.175781 24.28125 21.804688 21.851562 21.804688 16.988281 C 21.804688 14.582031 21.140625 12.785156 19.8125 11.605469 C 18.480469 10.421875 16.4375 9.828125 13.675781 9.828125 L 10.878906 9.828125 Z M 10.878906 24.28125 " fill-opacity="1" fill-rule="nonzero"/><path fill="#4b5842" d="M 22.824219 25.03125 C 21.222656 25.03125 19.960938 24.648438 19.035156 23.886719 C 18.109375 23.121094 17.550781 21.917969 17.363281 20.273438 L 18.019531 20.207031 C 18.285156 21.71875 18.789062 22.792969 19.53125 23.421875 C 20.273438 24.054688 21.386719 24.371094 22.871094 24.371094 C 24.101562 24.371094 25.078125 24.066406 25.796875 23.457031 C 26.519531 22.847656 26.878906 22.027344 26.878906 21 C 26.878906 20.265625 26.734375 19.683594 26.449219 19.257812 C 26.164062 18.832031 25.710938 18.496094 25.09375 18.246094 C 24.476562 17.996094 23.675781 17.777344 22.691406 17.585938 C 21.871094 17.421875 21.128906 17.203125 20.464844 16.921875 C 19.804688 16.644531 19.28125 16.222656 18.890625 15.65625 C 18.503906 15.09375 18.308594 14.308594 18.308594 13.308594 C 18.308594 12.488281 18.503906 11.753906 18.890625 11.105469 C 19.28125 10.460938 19.816406 9.949219 20.5 9.578125 C 21.183594 9.203125 21.964844 9.015625 22.847656 9.015625 C 24.109375 9.015625 25.140625 9.355469 25.941406 10.039062 C 26.742188 10.722656 27.230469 11.738281 27.40625 13.089844 L 26.789062 13.179688 C 26.597656 11.960938 26.179688 11.070312 25.535156 10.511719 C 24.886719 9.953125 23.992188 9.675781 22.847656 9.675781 C 21.6875 9.675781 20.753906 10.007812 20.046875 10.667969 C 19.34375 11.328125 18.992188 12.210938 18.992188 13.308594 C 18.992188 14.117188 19.144531 14.761719 19.453125 15.238281 C 19.761719 15.714844 20.203125 16.078125 20.773438 16.328125 C 21.347656 16.578125 22.039062 16.785156 22.847656 16.945312 C 23.992188 17.164062 24.910156 17.433594 25.601562 17.75 C 26.292969 18.066406 26.789062 18.480469 27.097656 18.996094 C 27.40625 19.507812 27.5625 20.175781 27.5625 21 C 27.5625 21.820312 27.363281 22.535156 26.964844 23.136719 C 26.570312 23.738281 26.015625 24.207031 25.304688 24.535156 C 24.589844 24.863281 23.765625 25.03125 22.824219 25.03125 Z M 22.824219 25.03125 " fill-opacity="1" fill-rule="nonzero"/><path fill="#4b5842" d="M 12.972656 27.316406 L 12.972656 26.195312 L 13.335938 26.195312 C 13.558594 26.195312 13.726562 26.242188 13.835938 26.335938 C 13.949219 26.429688 14.007812 26.570312 14.007812 26.753906 C 14.007812 26.867188 13.980469 26.964844 13.929688 27.046875 C 13.878906 27.132812 13.808594 27.199219 13.71875 27.246094 C 13.628906 27.292969 13.523438 27.316406 13.40625 27.316406 Z M 13.230469 27.089844 L 13.394531 27.089844 C 13.507812 27.089844 13.59375 27.0625 13.65625 27.007812 C 13.714844 26.949219 13.742188 26.871094 13.742188 26.761719 C 13.742188 26.648438 13.714844 26.5625 13.652344 26.507812 C 13.589844 26.453125 13.496094 26.425781 13.367188 26.425781 L 13.230469 26.425781 Z M 13.230469 27.089844 " fill-opacity="1" fill-rule="nonzero"/><path fill="#4b5842" d="M 14.917969 27.332031 C 14.777344 27.332031 14.671875 27.300781 14.597656 27.242188 C 14.519531 27.183594 14.476562 27.097656 14.464844 26.984375 L 14.707031 26.949219 C 14.714844 27.003906 14.734375 27.042969 14.773438 27.074219 C 14.808594 27.101562 14.859375 27.117188 14.925781 27.117188 C 14.980469 27.117188 15.023438 27.109375 15.054688 27.089844 C 15.085938 27.070312 15.101562 27.039062 15.101562 27.003906 C 15.101562 26.972656 15.085938 26.945312 15.050781 26.929688 C 15.019531 26.910156 14.96875 26.890625 14.894531 26.875 C 14.816406 26.855469 14.753906 26.832031 14.699219 26.804688 C 14.644531 26.777344 14.605469 26.742188 14.578125 26.699219 C 14.550781 26.65625 14.535156 26.601562 14.535156 26.535156 C 14.535156 26.46875 14.554688 26.40625 14.589844 26.351562 C 14.625 26.296875 14.675781 26.253906 14.738281 26.226562 C 14.804688 26.195312 14.878906 26.179688 14.964844 26.179688 C 15.070312 26.179688 15.160156 26.210938 15.230469 26.265625 C 15.300781 26.320312 15.339844 26.398438 15.351562 26.492188 L 15.125 26.53125 C 15.117188 26.488281 15.097656 26.453125 15.066406 26.429688 C 15.035156 26.40625 14.996094 26.394531 14.949219 26.394531 C 14.90625 26.394531 14.867188 26.40625 14.839844 26.429688 C 14.8125 26.449219 14.796875 26.476562 14.796875 26.515625 C 14.796875 26.550781 14.808594 26.578125 14.835938 26.597656 C 14.863281 26.617188 14.914062 26.636719 14.988281 26.652344 C 15.066406 26.671875 15.132812 26.695312 15.1875 26.71875 C 15.242188 26.742188 15.285156 26.773438 15.316406 26.816406 C 15.347656 26.855469 15.359375 26.914062 15.359375 26.984375 C 15.359375 27.050781 15.34375 27.113281 15.304688 27.164062 C 15.269531 27.21875 15.214844 27.257812 15.148438 27.289062 C 15.082031 27.316406 15.003906 27.332031 14.917969 27.332031 Z M 14.917969 27.332031 " fill-opacity="1" fill-rule="nonzero"/><path fill="#4b5842" d="M 16.664062 27.316406 L 16.664062 26.195312 L 17.027344 26.195312 C 17.25 26.195312 17.417969 26.242188 17.53125 26.335938 C 17.644531 26.429688 17.699219 26.570312 17.699219 26.753906 C 17.699219 26.867188 17.675781 26.964844 17.621094 27.046875 C 17.574219 27.132812 17.503906 27.199219 17.410156 27.246094 C 17.320312 27.292969 17.214844 27.316406 17.097656 27.316406 Z M 16.921875 27.089844 L 17.085938 27.089844 C 17.199219 27.089844 17.289062 27.0625 17.347656 27.007812 C 17.40625 26.949219 17.4375 26.871094 17.4375 26.761719 C 17.4375 26.648438 17.40625 26.5625 17.34375 26.507812 C 17.28125 26.453125 17.1875 26.425781 17.0625 26.425781 L 16.921875 26.425781 Z M 16.921875 27.089844 " fill-opacity="1" fill-rule="nonzero"/><path fill="#4b5842" d="M 19.011719 26.417969 L 18.5 26.417969 L 18.5 26.640625 L 18.980469 26.640625 L 18.980469 26.863281 L 18.5 26.863281 L 18.5 27.097656 L 19.03125 27.097656 L 19.011719 27.316406 L 18.246094 27.316406 L 18.246094 26.195312 L 19.011719 26.195312 Z M 19.011719 26.417969 " fill-opacity="1" fill-rule="nonzero"/><path fill="#4b5842" d="M 19.90625 27.332031 C 19.769531 27.332031 19.664062 27.300781 19.585938 27.242188 C 19.511719 27.183594 19.46875 27.097656 19.457031 26.984375 L 19.699219 26.949219 C 19.707031 27.003906 19.726562 27.042969 19.765625 27.074219 C 19.800781 27.101562 19.851562 27.117188 19.917969 27.117188 C 19.972656 27.117188 20.015625 27.109375 20.046875 27.089844 C 20.078125 27.070312 20.089844 27.039062 20.089844 27.003906 C 20.089844 26.972656 20.074219 26.945312 20.042969 26.929688 C 20.011719 26.910156 19.960938 26.890625 19.886719 26.875 C 19.808594 26.855469 19.742188 26.832031 19.691406 26.804688 C 19.636719 26.777344 19.59375 26.742188 19.566406 26.699219 C 19.539062 26.65625 19.527344 26.601562 19.527344 26.535156 C 19.527344 26.46875 19.546875 26.40625 19.582031 26.351562 C 19.617188 26.296875 19.667969 26.253906 19.730469 26.226562 C 19.792969 26.195312 19.871094 26.179688 19.953125 26.179688 C 20.0625 26.179688 20.152344 26.210938 20.222656 26.265625 C 20.292969 26.320312 20.332031 26.398438 20.34375 26.492188 L 20.117188 26.53125 C 20.109375 26.488281 20.089844 26.453125 20.058594 26.429688 C 20.027344 26.40625 19.988281 26.394531 19.941406 26.394531 C 19.894531 26.394531 19.859375 26.40625 19.832031 26.429688 C 19.800781 26.449219 19.789062 26.476562 19.789062 26.515625 C 19.789062 26.550781 19.800781 26.578125 19.828125 26.597656 C 19.855469 26.617188 19.90625 26.636719 19.980469 26.652344 C 20.054688 26.671875 20.121094 26.695312 20.179688 26.71875 C 20.234375 26.742188 20.277344 26.773438 20.308594 26.816406 C 20.335938 26.855469 20.351562 26.914062 20.351562 26.984375 C 20.351562 27.050781 20.332031 27.113281 20.296875 27.164062 C 20.257812 27.21875 20.207031 27.257812 20.140625 27.289062 C 20.074219 27.316406 19.996094 27.332031 19.90625 27.332031 Z M 19.90625 27.332031 " fill-opacity="1" fill-rule="nonzero"/><path fill="#4b5842" d="M 20.875 26.195312 L 21.132812 26.195312 L 21.132812 27.316406 L 20.875 27.316406 Z M 20.875 26.195312 " fill-opacity="1" fill-rule="nonzero"/><path fill="#4b5842" d="M 22.285156 26.707031 L 22.765625 26.707031 L 22.765625 27.316406 L 22.558594 27.316406 L 22.542969 27.214844 C 22.503906 27.257812 22.460938 27.289062 22.402344 27.308594 C 22.347656 27.324219 22.289062 27.335938 22.226562 27.335938 C 22.113281 27.335938 22.015625 27.3125 21.933594 27.269531 C 21.851562 27.222656 21.789062 27.160156 21.746094 27.078125 C 21.699219 26.996094 21.679688 26.894531 21.679688 26.777344 C 21.679688 26.660156 21.703125 26.558594 21.753906 26.46875 C 21.804688 26.378906 21.878906 26.308594 21.972656 26.257812 C 22.066406 26.207031 22.175781 26.179688 22.304688 26.179688 C 22.410156 26.179688 22.5 26.199219 22.574219 26.238281 C 22.644531 26.273438 22.707031 26.332031 22.757812 26.40625 L 22.558594 26.550781 C 22.53125 26.503906 22.496094 26.46875 22.449219 26.445312 C 22.402344 26.425781 22.355469 26.414062 22.304688 26.414062 C 22.230469 26.414062 22.164062 26.429688 22.113281 26.460938 C 22.0625 26.488281 22.019531 26.53125 21.992188 26.585938 C 21.960938 26.640625 21.945312 26.703125 21.945312 26.773438 C 21.945312 26.878906 21.976562 26.960938 22.03125 27.015625 C 22.085938 27.074219 22.160156 27.101562 22.253906 27.101562 C 22.292969 27.101562 22.332031 27.09375 22.367188 27.082031 C 22.40625 27.070312 22.4375 27.046875 22.464844 27.019531 C 22.492188 26.992188 22.507812 26.960938 22.515625 26.917969 L 22.285156 26.917969 Z M 22.285156 26.707031 " fill-opacity="1" fill-rule="nonzero"/><path fill="#4b5842" d="M 24.050781 26.195312 L 24.300781 26.195312 L 24.300781 27.316406 L 24.070312 27.316406 L 23.574219 26.621094 L 23.574219 27.316406 L 23.324219 27.316406 L 23.324219 26.195312 L 23.554688 26.195312 L 24.050781 26.894531 Z M 24.050781 26.195312 " fill-opacity="1" fill-rule="nonzero"/><path fill="#4b5842" d="M 10.195312 24.875 L 10.195312 9.234375 L 13.566406 9.234375 C 19.53125 9.234375 22.511719 11.820312 22.511719 16.988281 C 22.511719 19.515625 21.789062 21.460938 20.339844 22.828125 C 18.894531 24.195312 16.773438 24.875 13.984375 24.875 Z M 10.878906 24.28125 L 13.917969 24.28125 C 19.175781 24.28125 21.804688 21.851562 21.804688 16.988281 C 21.804688 14.582031 21.140625 12.785156 19.8125 11.605469 C 18.480469 10.421875 16.4375 9.828125 13.675781 9.828125 L 10.878906 9.828125 Z M 10.878906 24.28125 " fill-opacity="1" fill-rule="nonzero"/><path fill="#4b5842" d="M 22.824219 25.03125 C 21.222656 25.03125 19.960938 24.648438 19.035156 23.886719 C 18.109375 23.121094 17.550781 21.917969 17.363281 20.273438 L 18.019531 20.207031 C 18.285156 21.71875 18.789062 22.792969 19.53125 23.421875 C 20.273438 24.054688 21.386719 24.371094 22.871094 24.371094 C 24.101562 24.371094 25.078125 24.066406 25.796875 23.457031 C 26.519531 22.847656 26.878906 22.027344 26.878906 21 C 26.878906 20.265625 26.734375 19.683594 26.449219 19.257812 C 26.164062 18.832031 25.710938 18.496094 25.09375 18.246094 C 24.476562 17.996094 23.675781 17.777344 22.691406 17.585938 C 21.871094 17.421875 21.128906 17.203125 20.464844 16.921875 C 19.804688 16.644531 19.28125 16.222656 18.890625 15.65625 C 18.503906 15.09375 18.308594 14.308594 18.308594 13.308594 C 18.308594 12.488281 18.503906 11.753906 18.890625 11.105469 C 19.28125 10.460938 19.816406 9.949219 20.5 9.578125 C 21.183594 9.203125 21.964844 9.015625 22.847656 9.015625 C 24.109375 9.015625 25.140625 9.355469 25.941406 10.039062 C 26.742188 10.722656 27.230469 11.738281 27.40625 13.089844 L 26.789062 13.179688 C 26.597656 11.960938 26.179688 11.070312 25.535156 10.511719 C 24.886719 9.953125 23.992188 9.675781 22.847656 9.675781 C 21.6875 9.675781 20.753906 10.007812 20.046875 10.667969 C 19.34375 11.328125 18.992188 12.210938 18.992188 13.308594 C 18.992188 14.117188 19.144531 14.761719 19.453125 15.238281 C 19.761719 15.714844 20.203125 16.078125 20.773438 16.328125 C 21.347656 16.578125 22.039062 16.785156 22.847656 16.945312 C 23.992188 17.164062 24.910156 17.433594 25.601562 17.75 C 26.292969 18.066406 26.789062 18.480469 27.097656 18.996094 C 27.40625 19.507812 27.5625 20.175781 27.5625 21 C 27.5625 21.820312 27.363281 22.535156 26.964844 23.136719 C 26.570312 23.738281 26.015625 24.207031 25.304688 24.535156 C 24.589844 24.863281 23.765625 25.03125 22.824219 25.03125 Z M 22.824219 25.03125 " fill-opacity="1" fill-rule="nonzero"/><path fill="#4b5842" d="M 12.972656 27.316406 L 12.972656 26.195312 L 13.335938 26.195312 C 13.558594 26.195312 13.726562 26.242188 13.835938 26.335938 C 13.949219 26.429688 14.007812 26.570312 14.007812 26.753906 C 14.007812 26.867188 13.980469 26.964844 13.929688 27.046875 C 13.878906 27.132812 13.808594 27.199219 13.71875 27.246094 C 13.628906 27.292969 13.523438 27.316406 13.40625 27.316406 Z M 13.230469 27.089844 L 13.394531 27.089844 C 13.507812 27.089844 13.59375 27.0625 13.65625 27.007812 C 13.714844 26.949219 13.742188 26.871094 13.742188 26.761719 C 13.742188 26.648438 13.714844 26.5625 13.652344 26.507812 C 13.589844 26.453125 13.496094 26.425781 13.367188 26.425781 L 13.230469 26.425781 Z M 13.230469 27.089844 " fill-opacity="1" fill-rule="nonzero"/><path fill="#4b5842" d="M 14.917969 27.332031 C 14.777344 27.332031 14.671875 27.300781 14.597656 27.242188 C 14.519531 27.183594 14.476562 27.097656 14.464844 26.984375 L 14.707031 26.949219 C 14.714844 27.003906 14.734375 27.042969 14.773438 27.074219 C 14.808594 27.101562 14.859375 27.117188 14.925781 27.117188 C 14.980469 27.117188 15.023438 27.109375 15.054688 27.089844 C 15.085938 27.070312 15.101562 27.039062 15.101562 27.003906 C 15.101562 26.972656 15.085938 26.945312 15.050781 26.929688 C 15.019531 26.910156 14.96875 26.890625 14.894531 26.875 C 14.816406 26.855469 14.753906 26.832031 14.699219 26.804688 C 14.644531 26.777344 14.605469 26.742188 14.578125 26.699219 C 14.550781 26.65625 14.535156 26.601562 14.535156 26.535156 C 14.535156 26.46875 14.554688 26.40625 14.589844 26.351562 C 14.625 26.296875 14.675781 26.253906 14.738281 26.226562 C 14.804688 26.195312 14.878906 26.179688 14.964844 26.179688 C 15.070312 26.179688 15.160156 26.210938 15.230469 26.265625 C 15.300781 26.320312 15.339844 26.398438 15.351562 26.492188 L 15.125 26.53125 C 15.117188 26.488281 15.097656 26.453125 15.066406 26.429688 C 15.035156 26.40625 14.996094 26.394531 14.949219 26.394531 C 14.90625 26.394531 14.867188 26.40625 14.839844 26.429688 C 14.8125 26.449219 14.796875 26.476562 14.796875 26.515625 C 14.796875 26.550781 14.808594 26.578125 14.835938 26.597656 C 14.863281 26.617188 14.914062 26.636719 14.988281 26.652344 C 15.066406 26.671875 15.132812 26.695312 15.1875 26.71875 C 15.242188 26.742188 15.285156 26.773438 15.316406 26.816406 C 15.347656 26.855469 15.359375 26.914062 15.359375 26.984375 C 15.359375 27.050781 15.34375 27.113281 15.304688 27.164062 C 15.269531 27.21875 15.214844 27.257812 15.148438 27.289062 C 15.082031 27.316406 15.003906 27.332031 14.917969 27.332031 Z M 14.917969 27.332031 " fill-opacity="1" fill-rule="nonzero"/><path fill="#4b5842" d="M 16.664062 27.316406 L 16.664062 26.195312 L 17.027344 26.195312 C 17.25 26.195312 17.417969 26.242188 17.53125 26.335938 C 17.644531 26.429688 17.699219 26.570312 17.699219 26.753906 C 17.699219 26.867188 17.675781 26.964844 17.621094 27.046875 C 17.574219 27.132812 17.503906 27.199219 17.410156 27.246094 C 17.320312 27.292969 17.214844 27.316406 17.097656 27.316406 Z M 16.921875 27.089844 L 17.085938 27.089844 C 17.199219 27.089844 17.289062 27.0625 17.347656 27.007812 C 17.40625 26.949219 17.4375 26.871094 17.4375 26.761719 C 17.4375 26.648438 17.40625 26.5625 17.34375 26.507812 C 17.28125 26.453125 17.1875 26.425781 17.0625 26.425781 L 16.921875 26.425781 Z M 16.921875 27.089844 " fill-opacity="1" fill-rule="nonzero"/><path fill="#4b5842" d="M 19.011719 26.417969 L 18.5 26.417969 L 18.5 26.640625 L 18.980469 26.640625 L 18.980469 26.863281 L 18.5 26.863281 L 18.5 27.097656 L 19.03125 27.097656 L 19.011719 27.316406 L 18.246094 27.316406 L 18.246094 26.195312 L 19.011719 26.195312 Z M 19.011719 26.417969 " fill-opacity="1" fill-rule="nonzero"/><path fill="#4b5842" d="M 19.90625 27.332031 C 19.769531 27.332031 19.664062 27.300781 19.585938 27.242188 C 19.511719 27.183594 19.46875 27.097656 19.457031 26.984375 L 19.699219 26.949219 C 19.707031 27.003906 19.726562 27.042969 19.765625 27.074219 C 19.800781 27.101562 19.851562 27.117188 19.917969 27.117188 C 19.972656 27.117188 20.015625 27.109375 20.046875 27.089844 C 20.078125 27.070312 20.089844 27.039062 20.089844 27.003906 C 20.089844 26.972656 20.074219 26.945312 20.042969 26.929688 C 20.011719 26.910156 19.960938 26.890625 19.886719 26.875 C 19.808594 26.855469 19.742188 26.832031 19.691406 26.804688 C 19.636719 26.777344 19.59375 26.742188 19.566406 26.699219 C 19.539062 26.65625 19.527344 26.601562 19.527344 26.535156 C 19.527344 26.46875 19.546875 26.40625 19.582031 26.351562 C 19.617188 26.296875 19.667969 26.253906 19.730469 26.226562 C 19.792969 26.195312 19.871094 26.179688 19.953125 26.179688 C 20.0625 26.179688 20.152344 26.210938 20.222656 26.265625 C 20.292969 26.320312 20.332031 26.398438 20.34375 26.492188 L 20.117188 26.53125 C 20.109375 26.488281 20.089844 26.453125 20.058594 26.429688 C 20.027344 26.40625 19.988281 26.394531 19.941406 26.394531 C 19.894531 26.394531 19.859375 26.40625 19.832031 26.429688 C 19.800781 26.449219 19.789062 26.476562 19.789062 26.515625 C 19.789062 26.550781 19.800781 26.578125 19.828125 26.597656 C 19.855469 26.617188 19.90625 26.636719 19.980469 26.652344 C 20.054688 26.671875 20.121094 26.695312 20.179688 26.71875 C 20.234375 26.742188 20.277344 26.773438 20.308594 26.816406 C 20.335938 26.855469 20.351562 26.914062 20.351562 26.984375 C 20.351562 27.050781 20.332031 27.113281 20.296875 27.164062 C 20.257812 27.21875 20.207031 27.257812 20.140625 27.289062 C 20.074219 27.316406 19.996094 27.332031 19.90625 27.332031 Z M 19.90625 27.332031 " fill-opacity="1" fill-rule="nonzero"/><path fill="#4b5842" d="M 20.875 26.195312 L 21.132812 26.195312 L 21.132812 27.316406 L 20.875 27.316406 Z M 20.875 26.195312 " fill-opacity="1" fill-rule="nonzero"/><path fill="#4b5842" d="M 22.285156 26.707031 L 22.765625 26.707031 L 22.765625 27.316406 L 22.558594 27.316406 L 22.542969 27.214844 C 22.503906 27.257812 22.460938 27.289062 22.402344 27.308594 C 22.347656 27.324219 22.289062 27.335938 22.226562 27.335938 C 22.113281 27.335938 22.015625 27.3125 21.933594 27.269531 C 21.851562 27.222656 21.789062 27.160156 21.746094 27.078125 C 21.699219 26.996094 21.679688 26.894531 21.679688 26.777344 C 21.679688 26.660156 21.703125 26.558594 21.753906 26.46875 C 21.804688 26.378906 21.878906 26.308594 21.972656 26.257812 C 22.066406 26.207031 22.175781 26.179688 22.304688 26.179688 C 22.410156 26.179688 22.5 26.199219 22.574219 26.238281 C 22.644531 26.273438 22.707031 26.332031 22.757812 26.40625 L 22.558594 26.550781 C 22.53125 26.503906 22.496094 26.46875 22.449219 26.445312 C 22.402344 26.425781 22.355469 26.414062 22.304688 26.414062 C 22.230469 26.414062 22.164062 26.429688 22.113281 26.460938 C 22.0625 26.488281 22.019531 26.53125 21.992188 26.585938 C 21.960938 26.640625 21.945312 26.703125 21.945312 26.773438 C 21.945312 26.878906 21.976562 26.960938 22.03125 27.015625 C 22.085938 27.074219 22.160156 27.101562 22.253906 27.101562 C 22.292969 27.101562 22.332031 27.09375 22.367188 27.082031 C 22.40625 27.070312 22.4375 27.046875 22.464844 27.019531 C 22.492188 26.992188 22.507812 26.960938 22.515625 26.917969 L 22.285156 26.917969 Z M 22.285156 26.707031 " fill-opacity="1" fill-rule="nonzero"/><path fill="#4b5842" d="M 24.050781 26.195312 L 24.300781 26.195312 L 24.300781 27.316406 L 24.070312 27.316406 L 23.574219 26.621094 L 23.574219 27.316406 L 23.324219 27.316406 L 23.324219 26.195312 L 23.554688 26.195312 L 24.050781 26.894531 Z M 24.050781 26.195312 " fill-opacity="1" fill-rule="nonzero"/></svg>