<svg xmlns="http://www.w3.org/2000/svg" xmlns:xlink="http://www.w3.org/1999/xlink" width="150" zoomAndPan="magnify" viewBox="0 0 112.5 112.499997" height="150" preserveAspectRatio="xMidYMid meet" version="1.0"><defs><clipPath id="95b31f5515"><path d="M 19.726562 19.726562 L 92.152344 19.726562 L 92.152344 92.152344 L 19.726562 92.152344 Z M 19.726562 19.726562 " clip-rule="nonzero"/></clipPath></defs><g clip-path="url(#95b31f5515)"><path fill="#4b5842" d="M 86.207031 19.726562 L 25.820312 19.726562 C 22.484375 19.726562 19.796875 22.445312 19.796875 25.75 L 19.796875 86.246094 C 19.796875 89.582031 22.519531 92.269531 25.820312 92.269531 L 86.171875 92.269531 C 89.511719 92.269531 92.195312 89.546875 92.195312 86.246094 L 92.195312 25.75 C 92.234375 22.445312 89.546875 19.726562 86.207031 19.726562 Z M 41.246094 79.566406 L 30.539062 79.566406 L 30.539062 47.414062 L 41.246094 47.414062 Z M 35.875 43.53125 C 32.5 43.53125 29.777344 40.808594 29.777344 37.433594 C 29.777344 34.058594 32.5 31.335938 35.875 31.335938 C 39.25 31.335938 41.972656 34.058594 41.972656 37.433594 C 41.972656 40.808594 39.25 43.53125 35.875 43.53125 Z M 81.527344 79.566406 L 70.785156 79.566406 L 70.53125 60.480469 C 70.53125 60.480469 70.785156 55.398438 65.234375 55.433594 C 59.679688 55.472656 58.917969 60.480469 58.917969 60.480469 L 58.917969 79.566406 L 48.105469 79.566406 L 48.105469 47.414062 L 58.484375 47.414062 L 58.484375 51.84375 C 58.484375 51.84375 58.917969 50.390625 61.3125 48.683594 C 63.707031 46.980469 67.664062 46.617188 69.371094 46.6875 C 71.074219 46.761719 73.398438 46.472656 77.28125 49.15625 C 81.453125 52.023438 81.5625 59.535156 81.5625 59.535156 Z M 81.527344 79.566406 " fill-opacity="1" fill-rule="nonzero"/></g></svg>