<svg xmlns="http://www.w3.org/2000/svg" xmlns:xlink="http://www.w3.org/1999/xlink" width="150" zoomAndPan="magnify" viewBox="0 0 112.5 112.499997" height="150" preserveAspectRatio="xMidYMid meet" version="1.0"><defs><clipPath id="52acb46e02"><path d="M 61 40 L 103.8125 40 L 103.8125 76 L 61 76 Z M 61 40 " clip-rule="nonzero"/></clipPath><clipPath id="2c9ad4a58e"><path d="M 8.238281 59 L 37 59 L 37 64 L 8.238281 64 Z M 8.238281 59 " clip-rule="nonzero"/></clipPath><clipPath id="443b3d7f24"><path d="M 24 28.125 L 76 28.125 L 76 76 L 24 76 Z M 24 28.125 " clip-rule="nonzero"/></clipPath></defs><path fill="#4b5842" d="M 34.105469 75.894531 L 26.148438 75.894531 C 25.046875 75.894531 24.15625 75.003906 24.15625 73.90625 C 24.15625 72.808594 25.046875 71.917969 26.148438 71.917969 L 34.105469 71.917969 C 35.207031 71.917969 36.097656 72.808594 36.097656 73.90625 C 36.097656 75.003906 35.207031 75.894531 34.105469 75.894531 Z M 34.105469 75.894531 " fill-opacity="1" fill-rule="nonzero"/><g clip-path="url(#52acb46e02)"><path fill="#4b5842" d="M 98.78125 75.894531 L 93.804688 75.894531 C 92.707031 75.894531 91.816406 75.003906 91.816406 73.90625 C 91.816406 72.808594 92.707031 71.917969 93.804688 71.917969 L 97.128906 71.917969 L 99.8125 57.621094 C 99.773438 50.304688 93.527344 44.058594 85.84375 44.058594 L 72.78125 44.058594 L 66.449219 71.917969 L 77.886719 71.917969 C 78.984375 71.917969 79.875 72.808594 79.875 73.90625 C 79.875 75.003906 78.984375 75.894531 77.886719 75.894531 L 63.957031 75.894531 C 63.351562 75.894531 62.777344 75.621094 62.398438 75.148438 C 62.023438 74.679688 61.878906 74.058594 62.015625 73.46875 L 69.25 41.628906 C 69.457031 40.71875 70.261719 40.078125 71.191406 40.078125 L 85.84375 40.078125 C 95.71875 40.078125 103.753906 48.113281 103.753906 57.988281 L 100.734375 74.273438 C 100.558594 75.214844 99.738281 75.894531 98.78125 75.894531 Z M 98.78125 75.894531 " fill-opacity="1" fill-rule="nonzero"/></g><path fill="#4b5842" d="M 85.84375 83.855469 C 80.359375 83.855469 75.894531 79.394531 75.894531 73.90625 C 75.894531 68.417969 80.359375 63.957031 85.84375 63.957031 C 91.328125 63.957031 95.792969 68.417969 95.792969 73.90625 C 95.792969 79.394531 91.328125 83.855469 85.84375 83.855469 Z M 85.84375 67.9375 C 82.554688 67.9375 79.875 70.613281 79.875 73.90625 C 79.875 77.199219 82.554688 79.875 85.84375 79.875 C 89.136719 79.875 91.816406 77.199219 91.816406 73.90625 C 91.816406 70.613281 89.136719 67.9375 85.84375 67.9375 Z M 85.84375 67.9375 " fill-opacity="1" fill-rule="nonzero"/><path fill="#4b5842" d="M 42.066406 83.855469 C 36.582031 83.855469 32.117188 79.394531 32.117188 73.90625 C 32.117188 68.417969 36.582031 63.957031 42.066406 63.957031 C 47.550781 63.957031 52.015625 68.417969 52.015625 73.90625 C 52.015625 79.394531 47.550781 83.855469 42.066406 83.855469 Z M 42.066406 67.9375 C 38.773438 67.9375 36.097656 70.613281 36.097656 73.90625 C 36.097656 77.199219 38.773438 79.875 42.066406 79.875 C 45.359375 79.875 48.035156 77.199219 48.035156 73.90625 C 48.035156 70.613281 45.359375 67.9375 42.066406 67.9375 Z M 42.066406 67.9375 " fill-opacity="1" fill-rule="nonzero"/><path fill="#4b5842" d="M 34.105469 40.078125 L 18.1875 40.078125 C 17.089844 40.078125 16.199219 39.1875 16.199219 38.085938 C 16.199219 36.988281 17.089844 36.097656 18.1875 36.097656 L 34.105469 36.097656 C 35.207031 36.097656 36.097656 36.988281 36.097656 38.085938 C 36.097656 39.1875 35.207031 40.078125 34.105469 40.078125 Z M 34.105469 40.078125 " fill-opacity="1" fill-rule="nonzero"/><path fill="#4b5842" d="M 34.105469 52.015625 L 14.207031 52.015625 C 13.109375 52.015625 12.21875 51.125 12.21875 50.027344 C 12.21875 48.929688 13.109375 48.039062 14.207031 48.039062 L 34.105469 48.039062 C 35.207031 48.039062 36.097656 48.929688 36.097656 50.027344 C 36.097656 51.125 35.207031 52.015625 34.105469 52.015625 Z M 34.105469 52.015625 " fill-opacity="1" fill-rule="nonzero"/><g clip-path="url(#2c9ad4a58e)"><path fill="#4b5842" d="M 34.105469 63.957031 L 10.226562 63.957031 C 9.128906 63.957031 8.238281 63.066406 8.238281 61.964844 C 8.238281 60.867188 9.128906 59.976562 10.226562 59.976562 L 34.105469 59.976562 C 35.207031 59.976562 36.097656 60.867188 36.097656 61.964844 C 36.097656 63.066406 35.207031 63.957031 34.105469 63.957031 Z M 34.105469 63.957031 " fill-opacity="1" fill-rule="nonzero"/></g><g clip-path="url(#443b3d7f24)"><path fill="#4b5842" d="M 63.957031 75.894531 L 50.027344 75.894531 C 48.929688 75.894531 48.035156 75.003906 48.035156 73.90625 C 48.035156 72.808594 48.929688 71.917969 50.027344 71.917969 L 62.367188 71.917969 L 71.410156 32.117188 L 26.148438 32.117188 C 25.046875 32.117188 24.15625 31.226562 24.15625 30.128906 C 24.15625 29.027344 25.046875 28.136719 26.148438 28.136719 L 73.90625 28.136719 C 74.511719 28.136719 75.082031 28.414062 75.460938 28.886719 C 75.839844 29.355469 75.984375 29.976562 75.847656 30.566406 L 65.898438 74.34375 C 65.691406 75.253906 64.882812 75.894531 63.957031 75.894531 Z M 63.957031 75.894531 " fill-opacity="1" fill-rule="nonzero"/></g></svg>