<svg xmlns="http://www.w3.org/2000/svg" xmlns:xlink="http://www.w3.org/1999/xlink" width="150" zoomAndPan="magnify" viewBox="0 0 112.5 112.499997" height="150" preserveAspectRatio="xMidYMid meet" version="1.0"><defs><clipPath id="24cf07dd74"><path d="M 15.785156 15.785156 L 96.214844 15.785156 L 96.214844 96.214844 L 15.785156 96.214844 Z M 15.785156 15.785156 " clip-rule="nonzero"/></clipPath><clipPath id="fb516d2042"><path d="M 56 15.785156 C 33.792969 15.785156 15.785156 33.792969 15.785156 56 C 15.785156 78.210938 33.792969 96.214844 56 96.214844 C 78.210938 96.214844 96.214844 78.210938 96.214844 56 C 96.214844 33.792969 78.210938 15.785156 56 15.785156 Z M 56 15.785156 " clip-rule="nonzero"/></clipPath><clipPath id="52e7d01651"><path d="M 26.792969 26.792969 L 85.035156 26.792969 L 85.035156 85.035156 L 26.792969 85.035156 Z M 26.792969 26.792969 " clip-rule="nonzero"/></clipPath></defs><g clip-path="url(#24cf07dd74)"><g clip-path="url(#fb516d2042)"><path fill="#4b5842" d="M 15.785156 15.785156 L 96.214844 15.785156 L 96.214844 96.214844 L 15.785156 96.214844 Z M 15.785156 15.785156 " fill-opacity="1" fill-rule="nonzero"/></g></g><g clip-path="url(#52e7d01651)"><path fill="#daddd8" d="M 56 26.792969 C 39.898438 26.792969 26.792969 39.898438 26.792969 56 C 26.792969 72.105469 39.898438 85.207031 56 85.207031 C 72.105469 85.207031 85.207031 72.105469 85.207031 56 C 85.207031 39.898438 72.105469 26.792969 56 26.792969 Z M 63.339844 63.339844 C 62.960938 63.722656 62.464844 63.910156 61.964844 63.910156 C 61.46875 63.910156 60.964844 63.722656 60.585938 63.339844 L 54.621094 57.378906 C 54.257812 57.011719 54.054688 56.515625 54.054688 56 L 54.054688 42.476562 C 54.054688 41.402344 54.925781 40.53125 56 40.53125 C 57.074219 40.53125 57.949219 41.402344 57.949219 42.476562 L 57.949219 55.191406 L 63.339844 60.585938 C 64.101562 61.351562 64.101562 62.582031 63.339844 63.339844 Z M 63.339844 63.339844 " fill-opacity="1" fill-rule="nonzero"/></g></svg>