<svg xmlns="http://www.w3.org/2000/svg" xmlns:xlink="http://www.w3.org/1999/xlink" width="40" zoomAndPan="magnify" viewBox="0 0 30 30.000001" height="40" preserveAspectRatio="xMidYMid meet" version="1.0"><defs><clipPath id="27336b2421"><path d="M 4.308594 6.566406 L 25.359375 6.566406 L 25.359375 22.535156 L 4.308594 22.535156 Z M 4.308594 6.566406 " clip-rule="nonzero"/></clipPath></defs><g clip-path="url(#27336b2421)"><path fill="#daddd8" d="M 25.089844 9.308594 C 24.894531 8.214844 23.953125 7.421875 22.859375 7.175781 C 21.222656 6.828125 18.199219 6.578125 14.921875 6.578125 C 11.652344 6.578125 8.578125 6.828125 6.9375 7.175781 C 5.847656 7.421875 4.90625 8.167969 4.707031 9.308594 C 4.507812 10.546875 4.308594 12.285156 4.308594 14.515625 C 4.308594 16.746094 4.507812 18.484375 4.753906 19.722656 C 4.957031 20.8125 5.898438 21.609375 6.988281 21.855469 C 8.722656 22.203125 11.699219 22.453125 14.972656 22.453125 C 18.25 22.453125 21.222656 22.203125 22.960938 21.855469 C 24.050781 21.609375 24.992188 20.863281 25.191406 19.722656 C 25.390625 18.484375 25.636719 16.695312 25.6875 14.515625 C 25.585938 12.285156 25.339844 10.546875 25.089844 9.308594 Z M 12.246094 17.988281 L 12.246094 11.042969 L 18.296875 14.515625 Z M 12.246094 17.988281 " fill-opacity="1" fill-rule="nonzero"/></g></svg>