<svg xmlns="http://www.w3.org/2000/svg" xmlns:xlink="http://www.w3.org/1999/xlink" width="150" zoomAndPan="magnify" viewBox="0 0 112.5 112.499997" height="150" preserveAspectRatio="xMidYMid meet" version="1.0"><defs><clipPath id="bb41a2c1e0"><path d="M 17.757812 17.894531 L 93.917969 17.894531 L 93.917969 94.058594 L 17.757812 94.058594 Z M 17.757812 17.894531 " clip-rule="nonzero"/></clipPath></defs><g clip-path="url(#bb41a2c1e0)"><path fill="#4b5842" d="M 56.011719 17.925781 C 34.878906 17.925781 17.757812 35.050781 17.757812 56.183594 C 17.757812 75.160156 31.601562 90.925781 49.71875 93.90625 L 49.71875 67.972656 L 39.980469 67.972656 L 39.980469 56.613281 L 49.71875 56.613281 L 49.71875 48.367188 C 49.71875 39.421875 56.972656 33.363281 65.914062 33.363281 C 69.890625 33.363281 72.375 33.957031 72.375 33.957031 L 72.375 43.496094 L 65.914062 43.496094 C 63.230469 43.496094 61.046875 45.683594 61.046875 48.367188 L 61.046875 56.613281 L 71.480469 56.613281 L 70.023438 67.972656 L 61.046875 67.972656 L 61.046875 94.074219 C 79.761719 91.589844 94.199219 75.558594 94.199219 56.183594 C 94.234375 35.050781 77.109375 17.925781 56.011719 17.925781 Z M 56.011719 17.925781 " fill-opacity="1" fill-rule="nonzero"/></g></svg>