<svg xmlns="http://www.w3.org/2000/svg" xmlns:xlink="http://www.w3.org/1999/xlink" width="40" zoomAndPan="magnify" viewBox="0 0 30 30.000001" height="40" preserveAspectRatio="xMidYMid meet" version="1.0"><defs><clipPath id="3ed84187fc"><path d="M 3.988281 3.542969 L 25.761719 3.542969 L 25.761719 25.316406 L 3.988281 25.316406 Z M 3.988281 3.542969 " clip-rule="nonzero"/></clipPath></defs><g clip-path="url(#3ed84187fc)"><path fill="#daddd8" d="M 15.003906 3.550781 C 8.917969 3.550781 3.988281 8.484375 3.988281 14.566406 C 3.988281 20.03125 7.972656 24.574219 13.191406 25.433594 L 13.191406 17.964844 L 10.386719 17.964844 L 10.386719 14.691406 L 13.191406 14.691406 L 13.191406 12.316406 C 13.191406 9.742188 15.28125 7.996094 17.855469 7.996094 C 19 7.996094 19.714844 8.167969 19.714844 8.167969 L 19.714844 10.914062 L 17.855469 10.914062 C 17.082031 10.914062 16.453125 11.542969 16.453125 12.316406 L 16.453125 14.691406 L 19.457031 14.691406 L 19.039062 17.964844 L 16.453125 17.964844 L 16.453125 25.480469 C 21.84375 24.765625 26 20.148438 26 14.566406 C 26.011719 8.484375 21.078125 3.550781 15.003906 3.550781 Z M 15.003906 3.550781 " fill-opacity="1" fill-rule="nonzero"/></g></svg>