<svg xmlns="http://www.w3.org/2000/svg" xmlns:xlink="http://www.w3.org/1999/xlink" width="150" zoomAndPan="magnify" viewBox="0 0 112.5 112.499997" height="150" preserveAspectRatio="xMidYMid meet" version="1.0"><defs><clipPath id="ab2d6649c5"><path d="M 21.675781 18 L 90.371094 18 L 90.371094 94 L 21.675781 94 Z M 21.675781 18 " clip-rule="nonzero"/></clipPath></defs><g clip-path="url(#ab2d6649c5)"><path fill="#4b5842" d="M 58.570312 46.796875 C 59.164062 45.699219 59.773438 44.714844 60.25 43.671875 C 62.113281 39.554688 64.320312 35.632812 66.6875 31.785156 C 67.773438 30.019531 68.875 28.28125 70.183594 26.675781 C 71.816406 24.679688 73.703125 22.851562 76.101562 21.96875 C 81.234375 20.078125 86.464844 21.46875 88.753906 27.128906 C 90.140625 30.554688 90.324219 34.152344 89.5625 37.785156 C 88.535156 42.710938 86.675781 47.308594 84.453125 51.816406 C 82.292969 56.210938 79.710938 60.34375 77.238281 64.550781 C 75.625 67.292969 74.011719 70.039062 72.316406 72.730469 C 70.480469 75.648438 68.460938 78.453125 66.691406 81.410156 C 64.558594 84.964844 62.039062 88.265625 60 91.878906 C 58.953125 93.738281 57.09375 94.28125 55.160156 93.28125 C 53.757812 92.558594 52.6875 91.453125 51.792969 90.175781 C 49.71875 87.21875 47.632812 84.265625 45.609375 81.273438 C 41.921875 75.8125 38.222656 70.363281 34.636719 64.839844 C 32.152344 61.007812 29.828125 57.0625 27.773438 52.980469 C 25.5 48.46875 23.464844 43.847656 22.453125 38.851562 C 21.675781 35.011719 21.679688 31.179688 23.289062 27.566406 C 26.015625 21.457031 31.296875 17.722656 38.386719 19.292969 C 42.621094 20.230469 45.917969 22.652344 48.886719 25.605469 C 52.019531 28.71875 54.25 32.464844 55.882812 36.53125 C 56.972656 39.242188 57.792969 42.058594 58.152344 44.980469 C 58.21875 45.546875 58.246094 46.128906 58.570312 46.796875 Z M 58.246094 88.324219 C 58.519531 88.269531 58.703125 88.074219 58.871094 87.867188 C 61.214844 84.980469 63.359375 81.949219 65.4375 78.875 C 67.488281 75.835938 69.410156 72.714844 71.445312 69.667969 C 73.421875 66.707031 75.203125 63.628906 76.933594 60.527344 C 78.886719 57.015625 80.859375 53.507812 82.578125 49.863281 C 84.535156 45.714844 86.371094 41.542969 86.742188 36.902344 C 86.894531 34.996094 86.945312 33.070312 86.453125 31.1875 C 85.171875 26.265625 81.53125 24.859375 77.164062 26.894531 C 75.09375 27.859375 73.683594 29.578125 72.171875 31.242188 C 69.417969 34.285156 66.964844 37.527344 64.835938 41.023438 C 63.34375 43.476562 61.898438 45.945312 60.824219 48.625 C 60.3125 49.898438 59.546875 51.054688 59.21875 52.425781 C 59.03125 53.21875 58.035156 53.785156 57.359375 53.664062 C 56.476562 53.507812 56.144531 52.894531 56.140625 52.050781 C 56.140625 51.785156 56.144531 51.523438 55.976562 51.289062 C 54.839844 49.722656 54.613281 47.84375 54.230469 46.03125 C 53.375 41.949219 52.089844 38.007812 49.980469 34.40625 C 48.453125 31.800781 46.609375 29.402344 44.203125 27.46875 C 42.316406 25.949219 40.332031 24.691406 37.960938 24.113281 C 36.648438 23.792969 35.351562 23.796875 34.011719 24.0625 C 31.621094 24.542969 29.320312 28.226562 29.054688 30.585938 C 28.652344 34.148438 29.296875 37.609375 30.417969 40.949219 C 31.667969 44.679688 33.363281 48.242188 35.195312 51.71875 C 37.398438 55.894531 39.832031 59.949219 42.363281 63.941406 C 44.382812 67.125 46.34375 70.34375 48.464844 73.457031 C 51.179688 77.453125 53.707031 81.566406 56.3125 85.632812 C 56.90625 86.554688 57.230469 87.695312 58.246094 88.324219 Z M 58.246094 88.324219 " fill-opacity="1" fill-rule="nonzero"/></g></svg>