<svg xmlns="http://www.w3.org/2000/svg" xmlns:xlink="http://www.w3.org/1999/xlink" width="40" zoomAndPan="magnify" viewBox="0 0 30 30.000001" height="40" preserveAspectRatio="xMidYMid meet" version="1.0"><defs><clipPath id="e5dabd7820"><path d="M 5.671875 5.191406 L 24.542969 5.191406 L 24.542969 24 L 5.671875 24 Z M 5.671875 5.191406 " clip-rule="nonzero"/></clipPath></defs><g clip-path="url(#e5dabd7820)"><path fill="#daddd8" d="M 22.761719 5.191406 L 7.242188 5.191406 C 6.382812 5.191406 5.691406 5.890625 5.691406 6.738281 L 5.691406 22.285156 C 5.691406 23.144531 6.390625 23.832031 7.242188 23.832031 L 22.75 23.832031 C 23.609375 23.832031 24.300781 23.132812 24.300781 22.285156 L 24.300781 6.738281 C 24.308594 5.890625 23.617188 5.191406 22.761719 5.191406 Z M 11.203125 20.570312 L 8.453125 20.570312 L 8.453125 12.304688 L 11.203125 12.304688 Z M 9.824219 11.308594 C 8.957031 11.308594 8.257812 10.609375 8.257812 9.742188 C 8.257812 8.875 8.957031 8.175781 9.824219 8.175781 C 10.691406 8.175781 11.390625 8.875 11.390625 9.742188 C 11.390625 10.609375 10.691406 11.308594 9.824219 11.308594 Z M 21.558594 20.570312 L 18.796875 20.570312 L 18.730469 15.664062 C 18.730469 15.664062 18.796875 14.359375 17.367188 14.367188 C 15.941406 14.375 15.746094 15.664062 15.746094 15.664062 L 15.746094 20.570312 L 12.96875 20.570312 L 12.96875 12.304688 L 15.632812 12.304688 L 15.632812 13.445312 C 15.632812 13.445312 15.746094 13.070312 16.363281 12.632812 C 16.976562 12.195312 17.992188 12.101562 18.433594 12.121094 C 18.871094 12.136719 19.46875 12.0625 20.464844 12.753906 C 21.539062 13.492188 21.566406 15.421875 21.566406 15.421875 Z M 21.558594 20.570312 " fill-opacity="1" fill-rule="nonzero"/></g></svg>