<svg xmlns="http://www.w3.org/2000/svg" xmlns:xlink="http://www.w3.org/1999/xlink" width="500" zoomAndPan="magnify" viewBox="0 0 375 374.999991" height="500" preserveAspectRatio="xMidYMid meet" version="1.0"><defs><g/></defs><g fill="#f8f8f8" fill-opacity="1"><g transform="translate(70.30133, 259.790584)"><g><path d="M 22.59375 0 L 22.59375 -178.203125 L 61 -178.203125 C 128.9375 -178.203125 162.90625 -148.753906 162.90625 -89.859375 C 162.90625 -61.078125 154.660156 -38.90625 138.171875 -23.34375 C 121.691406 -7.78125 97.554688 0 65.765625 0 Z M 30.375 -6.78125 L 65.015625 -6.78125 C 124.910156 -6.78125 154.859375 -34.472656 154.859375 -89.859375 C 154.859375 -117.296875 147.285156 -137.75 132.140625 -151.21875 C 117.003906 -164.695312 93.707031 -171.4375 62.25 -171.4375 L 30.375 -171.4375 Z M 30.375 -6.78125 "/></g></g></g><g fill="#f8f8f8" fill-opacity="1"><g transform="translate(164.491239, 259.790584)"><g><path d="M 72.28125 1.75 C 54.039062 1.75 39.648438 -2.597656 29.109375 -11.296875 C 18.566406 -19.992188 12.210938 -33.710938 10.046875 -52.453125 L 17.5625 -53.21875 C 20.582031 -35.976562 26.316406 -23.757812 34.765625 -16.5625 C 43.210938 -9.363281 55.890625 -5.765625 72.796875 -5.765625 C 86.847656 -5.765625 97.972656 -9.238281 106.171875 -16.1875 C 114.367188 -23.132812 118.46875 -32.460938 118.46875 -44.171875 C 118.46875 -52.535156 116.835938 -59.144531 113.578125 -64 C 110.316406 -68.851562 105.171875 -72.703125 98.140625 -75.546875 C 91.109375 -78.390625 81.988281 -80.898438 70.78125 -83.078125 C 61.40625 -84.921875 52.953125 -87.429688 45.421875 -90.609375 C 37.898438 -93.785156 31.921875 -98.59375 27.484375 -105.03125 C 23.046875 -111.476562 20.828125 -120.394531 20.828125 -131.78125 C 20.828125 -141.144531 23.046875 -149.507812 27.484375 -156.875 C 31.921875 -164.238281 38.03125 -170.050781 45.8125 -174.3125 C 53.59375 -178.582031 62.5 -180.71875 72.53125 -180.71875 C 86.925781 -180.71875 98.679688 -176.828125 107.796875 -169.046875 C 116.921875 -161.265625 122.488281 -149.675781 124.5 -134.28125 L 117.46875 -133.28125 C 115.289062 -147.164062 110.519531 -157.285156 103.15625 -163.640625 C 95.789062 -170.003906 85.582031 -173.1875 72.53125 -173.1875 C 59.3125 -173.1875 48.6875 -169.421875 40.65625 -161.890625 C 32.625 -154.359375 28.609375 -144.320312 28.609375 -131.78125 C 28.609375 -122.570312 30.363281 -115.25 33.875 -109.8125 C 37.394531 -104.375 42.414062 -100.234375 48.9375 -97.390625 C 55.46875 -94.546875 63.332031 -92.203125 72.53125 -90.359375 C 85.582031 -87.847656 96.039062 -84.789062 103.90625 -81.1875 C 111.78125 -77.59375 117.472656 -72.867188 120.984375 -67.015625 C 124.492188 -61.160156 126.25 -53.546875 126.25 -44.171875 C 126.25 -34.804688 123.988281 -26.691406 119.46875 -19.828125 C 114.957031 -12.960938 108.644531 -7.648438 100.53125 -3.890625 C 92.414062 -0.128906 83 1.75 72.28125 1.75 Z M 72.28125 1.75 "/></g></g></g><g fill="#f8f8f8" fill-opacity="1"><g transform="translate(123.337986, 287.605676)"><g><path d="M 1.203125 0 L 1.203125 -12.78125 L 5.34375 -12.78125 C 7.863281 -12.78125 9.765625 -12.242188 11.046875 -11.171875 C 12.335938 -10.109375 12.984375 -8.523438 12.984375 -6.421875 C 12.984375 -5.148438 12.691406 -4.035156 12.109375 -3.078125 C 11.535156 -2.117188 10.734375 -1.363281 9.703125 -0.8125 C 8.671875 -0.269531 7.476562 0 6.125 0 Z M 4.140625 -2.609375 L 6 -2.609375 C 7.300781 -2.609375 8.289062 -2.921875 8.96875 -3.546875 C 9.644531 -4.179688 9.984375 -5.113281 9.984375 -6.34375 C 9.984375 -7.632812 9.632812 -8.59375 8.9375 -9.21875 C 8.238281 -9.851562 7.160156 -10.171875 5.703125 -10.171875 L 4.140625 -10.171875 Z M 4.140625 -2.609375 "/></g></g></g><g fill="#f8f8f8" fill-opacity="1"><g transform="translate(141.338533, 287.605676)"><g><path d="M 5.34375 0.15625 C 3.769531 0.15625 2.550781 -0.175781 1.6875 -0.84375 C 0.820312 -1.519531 0.332031 -2.507812 0.21875 -3.8125 L 2.96875 -4.21875 C 3.039062 -3.59375 3.285156 -3.113281 3.703125 -2.78125 C 4.128906 -2.445312 4.710938 -2.28125 5.453125 -2.28125 C 6.085938 -2.28125 6.578125 -2.390625 6.921875 -2.609375 C 7.265625 -2.835938 7.4375 -3.15625 7.4375 -3.5625 C 7.4375 -3.9375 7.253906 -4.226562 6.890625 -4.4375 C 6.535156 -4.65625 5.941406 -4.863281 5.109375 -5.0625 C 4.222656 -5.269531 3.472656 -5.523438 2.859375 -5.828125 C 2.242188 -6.140625 1.78125 -6.539062 1.46875 -7.03125 C 1.164062 -7.53125 1.015625 -8.15625 1.015625 -8.90625 C 1.015625 -9.695312 1.21875 -10.398438 1.625 -11.015625 C 2.03125 -11.628906 2.597656 -12.101562 3.328125 -12.4375 C 4.054688 -12.78125 4.90625 -12.953125 5.875 -12.953125 C 7.113281 -12.953125 8.128906 -12.632812 8.921875 -12 C 9.710938 -11.363281 10.171875 -10.492188 10.296875 -9.390625 L 7.71875 -8.96875 C 7.625 -9.457031 7.398438 -9.835938 7.046875 -10.109375 C 6.703125 -10.378906 6.265625 -10.515625 5.734375 -10.515625 C 5.210938 -10.515625 4.789062 -10.390625 4.46875 -10.140625 C 4.144531 -9.898438 3.984375 -9.566406 3.984375 -9.140625 C 3.984375 -8.753906 4.132812 -8.441406 4.4375 -8.203125 C 4.75 -7.972656 5.320312 -7.757812 6.15625 -7.5625 C 7.03125 -7.34375 7.785156 -7.097656 8.421875 -6.828125 C 9.054688 -6.554688 9.546875 -6.1875 9.890625 -5.71875 C 10.234375 -5.25 10.40625 -4.613281 10.40625 -3.8125 C 10.40625 -3.03125 10.191406 -2.335938 9.765625 -1.734375 C 9.347656 -1.140625 8.757812 -0.675781 8 -0.34375 C 7.238281 -0.0078125 6.351562 0.15625 5.34375 0.15625 Z M 5.34375 0.15625 "/></g></g></g><g fill="#f8f8f8" fill-opacity="1"><g transform="translate(156.495086, 287.605676)"><g/></g></g><g fill="#f8f8f8" fill-opacity="1"><g transform="translate(165.405658, 287.605676)"><g><path d="M 1.203125 0 L 1.203125 -12.78125 L 5.34375 -12.78125 C 7.863281 -12.78125 9.765625 -12.242188 11.046875 -11.171875 C 12.335938 -10.109375 12.984375 -8.523438 12.984375 -6.421875 C 12.984375 -5.148438 12.691406 -4.035156 12.109375 -3.078125 C 11.535156 -2.117188 10.734375 -1.363281 9.703125 -0.8125 C 8.671875 -0.269531 7.476562 0 6.125 0 Z M 4.140625 -2.609375 L 6 -2.609375 C 7.300781 -2.609375 8.289062 -2.921875 8.96875 -3.546875 C 9.644531 -4.179688 9.984375 -5.113281 9.984375 -6.34375 C 9.984375 -7.632812 9.632812 -8.59375 8.9375 -9.21875 C 8.238281 -9.851562 7.160156 -10.171875 5.703125 -10.171875 L 4.140625 -10.171875 Z M 4.140625 -2.609375 "/></g></g></g><g fill="#f8f8f8" fill-opacity="1"><g transform="translate(183.406206, 287.605676)"><g><path d="M 9.953125 -10.234375 L 4.09375 -10.234375 L 4.09375 -7.703125 L 9.578125 -7.703125 L 9.578125 -5.171875 L 4.09375 -5.171875 L 4.09375 -2.53125 L 10.140625 -2.53125 L 9.953125 0 L 1.203125 0 L 1.203125 -12.78125 L 9.953125 -12.78125 Z M 9.953125 -10.234375 "/></g></g></g><g fill="#f8f8f8" fill-opacity="1"><g transform="translate(198.202764, 287.605676)"><g><path d="M 5.34375 0.15625 C 3.769531 0.15625 2.550781 -0.175781 1.6875 -0.84375 C 0.820312 -1.519531 0.332031 -2.507812 0.21875 -3.8125 L 2.96875 -4.21875 C 3.039062 -3.59375 3.285156 -3.113281 3.703125 -2.78125 C 4.128906 -2.445312 4.710938 -2.28125 5.453125 -2.28125 C 6.085938 -2.28125 6.578125 -2.390625 6.921875 -2.609375 C 7.265625 -2.835938 7.4375 -3.15625 7.4375 -3.5625 C 7.4375 -3.9375 7.253906 -4.226562 6.890625 -4.4375 C 6.535156 -4.65625 5.941406 -4.863281 5.109375 -5.0625 C 4.222656 -5.269531 3.472656 -5.523438 2.859375 -5.828125 C 2.242188 -6.140625 1.78125 -6.539062 1.46875 -7.03125 C 1.164062 -7.53125 1.015625 -8.15625 1.015625 -8.90625 C 1.015625 -9.695312 1.21875 -10.398438 1.625 -11.015625 C 2.03125 -11.628906 2.597656 -12.101562 3.328125 -12.4375 C 4.054688 -12.78125 4.90625 -12.953125 5.875 -12.953125 C 7.113281 -12.953125 8.128906 -12.632812 8.921875 -12 C 9.710938 -11.363281 10.171875 -10.492188 10.296875 -9.390625 L 7.71875 -8.96875 C 7.625 -9.457031 7.398438 -9.835938 7.046875 -10.109375 C 6.703125 -10.378906 6.265625 -10.515625 5.734375 -10.515625 C 5.210938 -10.515625 4.789062 -10.390625 4.46875 -10.140625 C 4.144531 -9.898438 3.984375 -9.566406 3.984375 -9.140625 C 3.984375 -8.753906 4.132812 -8.441406 4.4375 -8.203125 C 4.75 -7.972656 5.320312 -7.757812 6.15625 -7.5625 C 7.03125 -7.34375 7.785156 -7.097656 8.421875 -6.828125 C 9.054688 -6.554688 9.546875 -6.1875 9.890625 -5.71875 C 10.234375 -5.25 10.40625 -4.613281 10.40625 -3.8125 C 10.40625 -3.03125 10.191406 -2.335938 9.765625 -1.734375 C 9.347656 -1.140625 8.757812 -0.675781 8 -0.34375 C 7.238281 -0.0078125 6.351562 0.15625 5.34375 0.15625 Z M 5.34375 0.15625 "/></g></g></g><g fill="#f8f8f8" fill-opacity="1"><g transform="translate(213.359318, 287.605676)"><g><path d="M 1.203125 0 L 1.203125 -12.78125 L 4.140625 -12.78125 L 4.140625 0 Z M 1.203125 0 "/></g></g></g><g fill="#f8f8f8" fill-opacity="1"><g transform="translate(223.079877, 287.605676)"><g><path d="M 7.5625 -6.953125 L 13.015625 -6.953125 L 13.015625 0 L 10.6875 0 L 10.46875 -1.1875 C 10.0625 -0.695312 9.535156 -0.34375 8.890625 -0.125 C 8.253906 0.0820312 7.582031 0.1875 6.875 0.1875 C 5.601562 0.1875 4.5 -0.0625 3.5625 -0.5625 C 2.632812 -1.070312 1.914062 -1.796875 1.40625 -2.734375 C 0.894531 -3.679688 0.640625 -4.816406 0.640625 -6.140625 C 0.640625 -7.484375 0.929688 -8.664062 1.515625 -9.6875 C 2.097656 -10.71875 2.921875 -11.519531 3.984375 -12.09375 C 5.054688 -12.664062 6.316406 -12.953125 7.765625 -12.953125 C 8.972656 -12.953125 9.992188 -12.738281 10.828125 -12.3125 C 11.660156 -11.894531 12.359375 -11.253906 12.921875 -10.390625 L 10.671875 -8.75 C 10.367188 -9.289062 9.953125 -9.679688 9.421875 -9.921875 C 8.898438 -10.171875 8.347656 -10.296875 7.765625 -10.296875 C 6.921875 -10.296875 6.195312 -10.125 5.59375 -9.78125 C 5 -9.4375 4.535156 -8.957031 4.203125 -8.34375 C 3.867188 -7.726562 3.703125 -7.007812 3.703125 -6.1875 C 3.703125 -5 4.015625 -4.082031 4.640625 -3.4375 C 5.265625 -2.789062 6.125 -2.46875 7.21875 -2.46875 C 7.644531 -2.46875 8.070312 -2.539062 8.5 -2.6875 C 8.9375 -2.84375 9.304688 -3.078125 9.609375 -3.390625 C 9.921875 -3.703125 10.109375 -4.085938 10.171875 -4.546875 L 7.5625 -4.546875 Z M 7.5625 -6.953125 "/></g></g></g><g fill="#f8f8f8" fill-opacity="1"><g transform="translate(241.27842, 287.605676)"><g><path d="M 9.484375 -12.78125 L 12.3125 -12.78125 L 12.3125 0 L 9.703125 0 L 4.03125 -7.9375 L 4.03125 0 L 1.203125 0 L 1.203125 -12.78125 L 3.8125 -12.78125 L 9.484375 -4.84375 Z M 9.484375 -12.78125 "/></g></g></g></svg>