<svg xmlns="http://www.w3.org/2000/svg" xmlns:xlink="http://www.w3.org/1999/xlink" width="150" zoomAndPan="magnify" viewBox="0 0 112.5 112.499997" height="150" preserveAspectRatio="xMidYMid meet" version="1.0"><defs><clipPath id="1da48a0e08"><path d="M 16.753906 16.058594 L 95.15625 16.058594 L 95.15625 95 L 16.753906 95 Z M 16.753906 16.058594 " clip-rule="nonzero"/></clipPath></defs><g clip-path="url(#1da48a0e08)"><path fill="#4b5842" d="M 55.996094 16.082031 C 54.710938 16.085938 53.425781 16.148438 52.148438 16.277344 C 50.867188 16.402344 49.597656 16.59375 48.335938 16.84375 C 47.078125 17.097656 45.832031 17.410156 44.601562 17.785156 C 43.371094 18.15625 42.164062 18.589844 40.972656 19.085938 C 39.785156 19.578125 38.625 20.125 37.492188 20.734375 C 36.359375 21.339844 35.257812 22 34.1875 22.714844 C 33.121094 23.429688 32.089844 24.195312 31.09375 25.011719 C 30.101562 25.828125 29.148438 26.6875 28.242188 27.597656 C 27.332031 28.507812 26.46875 29.457031 25.652344 30.453125 C 24.835938 31.445312 24.070312 32.476562 23.355469 33.546875 C 22.640625 34.617188 21.980469 35.714844 21.375 36.851562 C 20.769531 37.984375 20.21875 39.144531 19.726562 40.332031 C 19.234375 41.519531 18.800781 42.730469 18.425781 43.957031 C 18.050781 45.1875 17.738281 46.433594 17.488281 47.695312 C 17.234375 48.957031 17.046875 50.226562 16.917969 51.503906 C 16.789062 52.785156 16.726562 54.066406 16.726562 55.355469 C 18.882812 107.453125 93.117188 107.4375 95.265625 55.351562 C 95.265625 54.066406 95.199219 52.785156 95.074219 51.503906 C 94.945312 50.226562 94.757812 48.957031 94.503906 47.695312 C 94.253906 46.433594 93.941406 45.1875 93.566406 43.957031 C 93.191406 42.730469 92.757812 41.519531 92.265625 40.332031 C 91.773438 39.144531 91.222656 37.984375 90.617188 36.851562 C 90.011719 35.714844 89.347656 34.613281 88.632812 33.546875 C 87.921875 32.476562 87.15625 31.445312 86.339844 30.453125 C 85.523438 29.457031 84.660156 28.507812 83.75 27.597656 C 82.84375 26.6875 81.890625 25.828125 80.898438 25.011719 C 79.902344 24.195312 78.871094 23.429688 77.804688 22.714844 C 76.734375 22 75.632812 21.339844 74.5 20.734375 C 73.367188 20.125 72.203125 19.578125 71.015625 19.082031 C 69.828125 18.589844 68.621094 18.15625 67.390625 17.785156 C 66.160156 17.410156 64.914062 17.097656 63.652344 16.84375 C 62.394531 16.59375 61.125 16.402344 59.84375 16.277344 C 58.5625 16.148438 57.28125 16.085938 55.996094 16.082031 Z M 68.347656 80.78125 C 47.25 81.242188 28.789062 61.761719 30.445312 40.671875 C 30.132812 32.617188 38.265625 28.25 45.285156 30.355469 C 45.523438 30.421875 45.726562 30.546875 45.890625 30.734375 C 46.058594 30.917969 46.160156 31.132812 46.195312 31.375 L 48.757812 47.519531 C 48.691406 49.480469 45.398438 50.519531 43.816406 51.019531 C 44.464844 52.914062 45.316406 54.710938 46.375 56.410156 C 47.433594 58.113281 48.671875 59.667969 50.089844 61.085938 C 51.507812 62.5 53.066406 63.738281 54.765625 64.796875 C 56.464844 65.855469 58.265625 66.707031 60.160156 67.351562 C 60.675781 65.703125 61.679688 62.480469 63.644531 62.410156 L 79.789062 64.96875 C 80.742188 65.042969 80.90625 66.261719 81.171875 66.96875 C 83.476562 75.046875 76.234375 81.761719 68.347656 80.78125 Z M 68.347656 80.78125 " fill-opacity="1" fill-rule="nonzero"/></g></svg>