<svg xmlns="http://www.w3.org/2000/svg" xmlns:xlink="http://www.w3.org/1999/xlink" width="40" zoomAndPan="magnify" viewBox="0 0 30 30.000001" height="40" preserveAspectRatio="xMidYMid meet" version="1.0"><defs><clipPath id="c361edebf3"><path d="M 5.609375 5.007812 L 24.390625 5.007812 L 24.390625 24.027344 L 5.609375 24.027344 Z M 5.609375 5.007812 " clip-rule="nonzero"/></clipPath><clipPath id="4b3138b9f0"><path d="M 7.785156 5.007812 L 22.214844 5.007812 C 22.792969 5.007812 23.347656 5.234375 23.753906 5.644531 C 24.164062 6.050781 24.390625 6.605469 24.390625 7.183594 L 24.390625 21.847656 C 24.390625 22.425781 24.164062 22.980469 23.753906 23.386719 C 23.347656 23.796875 22.792969 24.027344 22.214844 24.027344 L 7.785156 24.027344 C 7.207031 24.027344 6.652344 23.796875 6.246094 23.386719 C 5.835938 22.980469 5.609375 22.425781 5.609375 21.847656 L 5.609375 7.183594 C 5.609375 6.605469 5.835938 6.050781 6.246094 5.644531 C 6.652344 5.234375 7.207031 5.007812 7.785156 5.007812 Z M 7.785156 5.007812 " clip-rule="nonzero"/></clipPath><clipPath id="d7ef44c664"><path d="M 9.339844 8.566406 L 20.953125 8.566406 L 20.953125 19.453125 L 9.339844 19.453125 Z M 9.339844 8.566406 " clip-rule="nonzero"/></clipPath><clipPath id="259f17be4a"><path d="M 9.195312 8.566406 L 20.804688 8.566406 L 20.804688 19.453125 L 9.195312 19.453125 Z M 9.195312 8.566406 " clip-rule="nonzero"/></clipPath></defs><g clip-path="url(#c361edebf3)"><g clip-path="url(#4b3138b9f0)"><path fill="#daddd8" d="M 5.609375 5.007812 L 24.390625 5.007812 L 24.390625 24.027344 L 5.609375 24.027344 Z M 5.609375 5.007812 " fill-opacity="1" fill-rule="nonzero"/></g></g><g clip-path="url(#d7ef44c664)"><path fill="#4b5842" d="M 9.378906 8.589844 C 9.375 8.597656 9.757812 9.125 10.230469 9.753906 C 10.707031 10.386719 11.710938 11.734375 12.464844 12.742188 L 13.839844 14.582031 L 13.753906 14.679688 C 13.703125 14.734375 12.691406 15.824219 11.507812 17.105469 C 10.324219 18.386719 9.351562 19.441406 9.351562 19.453125 C 9.34375 19.464844 9.550781 19.472656 9.847656 19.472656 L 10.355469 19.46875 L 10.523438 19.285156 C 10.613281 19.1875 11.476562 18.257812 12.433594 17.21875 C 13.394531 16.179688 14.207031 15.300781 14.242188 15.261719 L 14.300781 15.195312 L 14.777344 15.832031 C 15.039062 16.179688 15.757812 17.144531 16.375 17.972656 L 17.503906 19.472656 L 19.226562 19.472656 C 20.660156 19.472656 20.945312 19.46875 20.9375 19.445312 C 20.929688 19.425781 20.492188 18.835938 19.964844 18.128906 C 19.4375 17.425781 18.835938 16.617188 18.625 16.335938 C 18.414062 16.054688 17.792969 15.222656 17.242188 14.488281 C 16.691406 13.75 16.238281 13.136719 16.238281 13.128906 C 16.238281 13.113281 19.152344 9.949219 20.144531 8.890625 L 20.425781 8.589844 L 19.386719 8.589844 L 18.78125 9.246094 C 18.449219 9.609375 17.632812 10.492188 16.96875 11.207031 L 15.761719 12.511719 L 14.300781 10.554688 L 12.835938 8.601562 L 11.113281 8.589844 C 10.164062 8.582031 9.382812 8.582031 9.378906 8.589844 Z M 13.460938 10.695312 C 14.027344 11.453125 14.894531 12.613281 15.394531 13.28125 C 15.894531 13.949219 17 15.429688 17.855469 16.574219 C 18.710938 17.71875 19.421875 18.667969 19.433594 18.683594 C 19.449219 18.707031 19.277344 18.714844 18.664062 18.714844 L 17.875 18.714844 L 16.316406 16.625 C 12.71875 11.820312 10.902344 9.390625 10.882812 9.355469 C 10.867188 9.332031 11.027344 9.324219 11.648438 9.324219 L 12.433594 9.324219 Z M 13.460938 10.695312 " fill-opacity="1" fill-rule="nonzero"/></g><g clip-path="url(#259f17be4a)"><path fill="#4b5842" d="M 9.234375 8.589844 C 9.230469 8.597656 9.613281 9.125 10.085938 9.753906 C 10.558594 10.386719 11.566406 11.734375 12.320312 12.742188 L 13.695312 14.582031 L 13.605469 14.679688 C 13.558594 14.734375 12.546875 15.824219 11.363281 17.105469 C 10.179688 18.386719 9.207031 19.441406 9.207031 19.453125 C 9.199219 19.464844 9.40625 19.472656 9.703125 19.472656 L 10.210938 19.46875 L 10.378906 19.285156 C 10.46875 19.1875 11.332031 18.257812 12.289062 17.21875 C 13.25 16.179688 14.0625 15.300781 14.097656 15.261719 L 14.15625 15.195312 L 14.632812 15.832031 C 14.894531 16.179688 15.613281 17.144531 16.230469 17.972656 L 17.359375 19.472656 L 19.082031 19.472656 C 20.515625 19.472656 20.800781 19.46875 20.792969 19.445312 C 20.785156 19.425781 20.347656 18.835938 19.820312 18.128906 C 19.292969 17.425781 18.6875 16.617188 18.480469 16.335938 C 18.269531 16.054688 17.648438 15.222656 17.097656 14.488281 C 16.546875 13.75 16.09375 13.136719 16.09375 13.128906 C 16.09375 13.113281 19.007812 9.949219 20 8.890625 L 20.28125 8.589844 L 19.242188 8.589844 L 18.636719 9.246094 C 18.304688 9.609375 17.488281 10.492188 16.824219 11.207031 L 15.617188 12.511719 L 14.15625 10.554688 L 12.691406 8.601562 L 10.96875 8.589844 C 10.019531 8.582031 9.238281 8.582031 9.234375 8.589844 Z M 13.316406 10.695312 C 13.878906 11.453125 14.75 12.613281 15.25 13.28125 C 15.75 13.949219 16.855469 15.429688 17.710938 16.574219 C 18.566406 17.71875 19.277344 18.667969 19.289062 18.683594 C 19.300781 18.707031 19.132812 18.714844 18.519531 18.714844 L 17.730469 18.714844 L 16.171875 16.625 C 12.574219 11.820312 10.757812 9.390625 10.734375 9.355469 C 10.722656 9.332031 10.882812 9.324219 11.503906 9.324219 L 12.289062 9.324219 Z M 13.316406 10.695312 " fill-opacity="1" fill-rule="nonzero"/><path fill="#4b5842" d="M 9.234375 8.589844 C 9.230469 8.597656 9.613281 9.125 10.085938 9.753906 C 10.558594 10.386719 11.566406 11.734375 12.320312 12.742188 L 13.695312 14.582031 L 13.605469 14.679688 C 13.558594 14.734375 12.546875 15.824219 11.363281 17.105469 C 10.179688 18.386719 9.207031 19.441406 9.207031 19.453125 C 9.199219 19.464844 9.40625 19.472656 9.703125 19.472656 L 10.210938 19.46875 L 10.378906 19.285156 C 10.46875 19.1875 11.332031 18.257812 12.289062 17.21875 C 13.25 16.179688 14.0625 15.300781 14.097656 15.261719 L 14.15625 15.195312 L 14.632812 15.832031 C 14.894531 16.179688 15.613281 17.144531 16.230469 17.972656 L 17.359375 19.472656 L 19.082031 19.472656 C 20.515625 19.472656 20.800781 19.46875 20.792969 19.445312 C 20.785156 19.425781 20.347656 18.835938 19.820312 18.128906 C 19.292969 17.425781 18.6875 16.617188 18.480469 16.335938 C 18.269531 16.054688 17.648438 15.222656 17.097656 14.488281 C 16.546875 13.75 16.09375 13.136719 16.09375 13.128906 C 16.09375 13.113281 19.007812 9.949219 20 8.890625 L 20.28125 8.589844 L 19.242188 8.589844 L 18.636719 9.246094 C 18.304688 9.609375 17.488281 10.492188 16.824219 11.207031 L 15.617188 12.511719 L 14.15625 10.554688 L 12.691406 8.601562 L 10.96875 8.589844 C 10.019531 8.582031 9.238281 8.582031 9.234375 8.589844 Z M 13.316406 10.695312 C 13.878906 11.453125 14.75 12.613281 15.25 13.28125 C 15.75 13.949219 16.855469 15.429688 17.710938 16.574219 C 18.566406 17.71875 19.277344 18.667969 19.289062 18.683594 C 19.300781 18.707031 19.132812 18.714844 18.519531 18.714844 L 17.730469 18.714844 L 16.171875 16.625 C 12.574219 11.820312 10.757812 9.390625 10.734375 9.355469 C 10.722656 9.332031 10.882812 9.324219 11.503906 9.324219 L 12.289062 9.324219 Z M 13.316406 10.695312 " fill-opacity="1" fill-rule="nonzero"/><path fill="#4b5842" d="M 9.234375 8.589844 C 9.230469 8.597656 9.613281 9.125 10.085938 9.753906 C 10.558594 10.386719 11.566406 11.734375 12.320312 12.742188 L 13.695312 14.582031 L 13.605469 14.679688 C 13.558594 14.734375 12.546875 15.824219 11.363281 17.105469 C 10.179688 18.386719 9.207031 19.441406 9.207031 19.453125 C 9.199219 19.464844 9.40625 19.472656 9.703125 19.472656 L 10.210938 19.46875 L 10.378906 19.285156 C 10.46875 19.1875 11.332031 18.257812 12.289062 17.21875 C 13.25 16.179688 14.0625 15.300781 14.097656 15.261719 L 14.15625 15.195312 L 14.632812 15.832031 C 14.894531 16.179688 15.613281 17.144531 16.230469 17.972656 L 17.359375 19.472656 L 19.082031 19.472656 C 20.515625 19.472656 20.800781 19.46875 20.792969 19.445312 C 20.785156 19.425781 20.347656 18.835938 19.820312 18.128906 C 19.292969 17.425781 18.6875 16.617188 18.480469 16.335938 C 18.269531 16.054688 17.648438 15.222656 17.097656 14.488281 C 16.546875 13.75 16.09375 13.136719 16.09375 13.128906 C 16.09375 13.113281 19.007812 9.949219 20 8.890625 L 20.28125 8.589844 L 19.242188 8.589844 L 18.636719 9.246094 C 18.304688 9.609375 17.488281 10.492188 16.824219 11.207031 L 15.617188 12.511719 L 14.15625 10.554688 L 12.691406 8.601562 L 10.96875 8.589844 C 10.019531 8.582031 9.238281 8.582031 9.234375 8.589844 Z M 13.316406 10.695312 C 13.878906 11.453125 14.75 12.613281 15.25 13.28125 C 15.75 13.949219 16.855469 15.429688 17.710938 16.574219 C 18.566406 17.71875 19.277344 18.667969 19.289062 18.683594 C 19.300781 18.707031 19.132812 18.714844 18.519531 18.714844 L 17.730469 18.714844 L 16.171875 16.625 C 12.574219 11.820312 10.757812 9.390625 10.734375 9.355469 C 10.722656 9.332031 10.882812 9.324219 11.503906 9.324219 L 12.289062 9.324219 Z M 13.316406 10.695312 " fill-opacity="1" fill-rule="nonzero"/></g></svg>