<svg xmlns="http://www.w3.org/2000/svg" xmlns:xlink="http://www.w3.org/1999/xlink" width="150" zoomAndPan="magnify" viewBox="0 0 112.5 112.499997" height="150" preserveAspectRatio="xMidYMid meet" version="1.0"><defs><clipPath id="91e264e99b"><path d="M 20.382812 19.933594 L 91.621094 19.933594 L 91.621094 92.066406 L 20.382812 92.066406 Z M 20.382812 19.933594 " clip-rule="nonzero"/></clipPath><clipPath id="51d240f006"><path d="M 25.609375 19.933594 L 86.394531 19.933594 C 89.28125 19.933594 91.621094 22.273438 91.621094 25.160156 L 91.621094 86.839844 C 91.621094 89.726562 89.28125 92.066406 86.394531 92.066406 L 25.609375 92.066406 C 22.722656 92.066406 20.382812 89.726562 20.382812 86.839844 L 20.382812 25.160156 C 20.382812 22.273438 22.722656 19.933594 25.609375 19.933594 Z M 25.609375 19.933594 " clip-rule="nonzero"/></clipPath><clipPath id="6888bdae9b"><path d="M 31.933594 32.203125 L 79.71875 32.203125 L 79.71875 79.992188 L 31.933594 79.992188 Z M 31.933594 32.203125 " clip-rule="nonzero"/></clipPath></defs><g clip-path="url(#91e264e99b)"><g clip-path="url(#51d240f006)"><path fill="#4b5842" d="M 20.382812 19.933594 L 91.621094 19.933594 L 91.621094 92.066406 L 20.382812 92.066406 Z M 20.382812 19.933594 " fill-opacity="1" fill-rule="nonzero"/></g></g><g clip-path="url(#6888bdae9b)"><path fill="#ffffff" d="M 49.621094 79.96875 L 31.949219 32.226562 L 43.796875 32.226562 L 60.015625 76.6875 L 76.628906 32.226562 L 79.742188 32.226562 L 61.933594 79.96875 Z M 57.167969 77.15625 L 41.8125 35.039062 L 36.054688 35.039062 L 51.542969 77.15625 Z M 57.167969 77.15625 " fill-opacity="1" fill-rule="nonzero"/></g></svg>