<svg xmlns="http://www.w3.org/2000/svg" xmlns:xlink="http://www.w3.org/1999/xlink" width="150" zoomAndPan="magnify" viewBox="0 0 112.5 112.499997" height="150" preserveAspectRatio="xMidYMid meet" version="1.0"><defs><clipPath id="47ce99cea4"><path d="M 17.835938 17.835938 L 93.996094 17.835938 L 93.996094 93.996094 L 17.835938 93.996094 Z M 17.835938 17.835938 " clip-rule="nonzero"/></clipPath></defs><g clip-path="url(#47ce99cea4)"><path fill="#4b5842" d="M 94.160156 82.5625 C 94.160156 88.957031 88.957031 94.160156 82.5625 94.160156 L 29.433594 94.160156 C 23.039062 94.160156 17.835938 88.957031 17.835938 82.5625 L 17.835938 29.433594 C 17.835938 23.039062 23.039062 17.835938 29.433594 17.835938 L 82.5625 17.835938 C 88.957031 17.835938 94.160156 23.039062 94.160156 29.433594 Z M 94.160156 82.5625 " fill-opacity="1" fill-rule="nonzero"/></g><path fill="#ffffff" d="M 83.050781 56.601562 C 83.050781 60.824219 83.050781 65.296875 82.109375 69.382812 C 81.445312 72.261719 79.097656 74.371094 76.257812 74.691406 C 69.554688 75.433594 62.761719 75.449219 56.003906 75.433594 C 49.238281 75.433594 42.46875 75.433594 35.753906 74.691406 C 32.925781 74.371094 30.5625 72.261719 29.898438 69.382812 C 28.957031 65.296875 28.957031 60.824219 28.957031 56.601562 C 28.957031 52.382812 28.972656 47.910156 29.898438 43.820312 C 30.5625 40.941406 32.914062 38.832031 35.753906 38.511719 C 42.46875 37.757812 49.25 37.757812 56.003906 37.757812 C 62.761719 37.757812 69.542969 37.757812 76.257812 38.511719 C 79.085938 38.832031 81.445312 40.941406 82.109375 43.820312 C 83.050781 47.910156 83.050781 52.382812 83.050781 56.601562 Z M 83.050781 56.601562 " fill-opacity="1" fill-rule="nonzero"/><path fill="#4b5842" d="M 50.3125 46.542969 L 50.3125 66.753906 L 66.011719 56.640625 Z M 50.3125 46.542969 " fill-opacity="1" fill-rule="nonzero"/></svg>